<svg width="100%" height="100%" viewBox="0 0 512 512"  xmlns="http://www.w3.org/2000/svg"><path d="m440.890625 0h-369.78125c-39.265625.015625-71.09375 31.84375-71.109375 71.109375v369.78125c.015625 39.265625 31.84375 71.09375 71.109375 71.109375h369.78125c39.265625-.015625 71.09375-31.84375 71.109375-71.109375v-369.78125c-.015625-39.265625-31.84375-71.09375-71.109375-71.109375zm-85.335937 305.777344c-.050782 35.324218-28.675782 63.949218-64 64h-92.445313c-7.84375-.023438-14.199219-6.375-14.21875-14.222656v-199.109376c.019531-7.847656 6.375-14.199218 14.21875-14.222656h92.445313c35.324218.050782 63.949218 28.675782 64 64-.050782 19.441406-9.011719 37.789063-24.320313 49.777344 15.308594 11.988281 24.269531 30.335938 24.320313 49.777344zm0 0"/><path d="m291.554688 270.222656h-78.222657v71.109375h78.222657c19.636718 0 35.554687-15.917969 35.554687-35.554687 0-19.636719-15.917969-35.554688-35.554687-35.554688zm0 0"/><path d="m291.554688 170.667969h-78.222657v71.109375h78.222657c19.636718 0 35.554687-15.917969 35.554687-35.554688 0-19.636718-15.917969-35.554687-35.554687-35.554687zm0 0"/></svg>