<?xml version="1.0" encoding="iso-8859-1"?>
<!-- Generator: Adobe Illustrator 19.0.0, SVG Export Plug-In . SVG Version: 6.00 Build 0)  -->
<svg width="100%" height="100%" version="1.1" id="Capa_1" xmlns="http://www.w3.org/2000/svg" x="0px" y="0px"
     viewBox="0 0 512 512" style="enable-background:new 0 0 512 512;" xml:space="preserve">
<g>
	<g>
		<path d="M445.538,328.792H414.81L298.677,9.718C296.553,3.883,291.007,0,284.798,0h-57.596c-6.209,0-11.754,3.883-13.878,9.718
			L97.19,328.792H66.462c-8.157,0-14.769,6.613-14.769,14.769v50.285c0,8.157,6.613,14.769,14.769,14.769h143.121
			c8.157,0,14.769-6.613,14.769-14.769v-50.285c0-8.157-6.613-14.769-14.769-14.769h-27.445l17.406-47.825h112.913l17.406,47.825
			h-27.445c-8.157,0-14.769,6.613-14.769,14.769v50.285c0,8.157,6.613,14.769,14.769,14.769h143.122
			c8.157,0,14.769-6.613,14.769-14.769v-50.285C460.308,335.404,453.695,328.792,445.538,328.792z M430.769,379.077H317.187V358.33
			h33.768c4.819,0,9.334-2.35,12.098-6.298c2.765-3.947,3.428-8.995,1.781-13.523l-28.157-77.362
			c-2.124-5.835-7.67-9.718-13.879-9.718H189.203c-6.209,0-11.754,3.883-13.878,9.718l-28.158,77.363
			c-1.648,4.528-0.984,9.575,1.78,13.523s7.279,6.298,12.098,6.298h33.768v20.746H81.231V358.33h26.301
			c6.209,0,11.754-3.883,13.878-9.718L237.543,29.538h36.913l116.132,319.073c2.124,5.835,7.67,9.718,13.879,9.718h26.301V379.077z"
			/>
	</g>
</g>
<g>
	<g>
		<path d="M319.781,214.729L269.878,77.621c-2.124-5.835-7.67-9.718-13.879-9.718c-6.209,0-11.754,3.883-13.878,9.718
			l-49.903,137.108c-1.648,4.528-0.984,9.575,1.78,13.523c2.765,3.947,7.28,6.298,12.099,6.298h99.806
			c4.819,0,9.334-2.35,12.098-6.298C320.765,224.304,321.429,219.257,319.781,214.729z M227.19,205.012L256,125.856l28.811,79.156
			H227.19z"/>
	</g>
</g>
<g>
	<g>
		<path d="M452.923,418.462H59.077c-8.157,0-14.769,6.613-14.769,14.769v64c0,8.157,6.613,14.769,14.769,14.769h393.846
			c8.157,0,14.769-6.613,14.769-14.769v-64C467.692,425.074,461.08,418.462,452.923,418.462z M438.154,482.462H73.846V448h364.308
			V482.462z"/>
	</g>
</g>
<g>
</g>
<g>
</g>
<g>
</g>
<g>
</g>
<g>
</g>
<g>
</g>
<g>
</g>
<g>
</g>
<g>
</g>
<g>
</g>
<g>
</g>
<g>
</g>
<g>
</g>
<g>
</g>
<g>
</g>
</svg>
