<svg width="100%" height="100%" enable-background="new 0 0 32 32" viewBox="0 0 32 32" xmlns="http://www.w3.org/2000/svg"><g id="Layer_1"><g><path d="m16 2c-6.079 0-11.43 3.881-13.313 9.657-.171.525.116 1.089.642 1.261.522.172 1.089-.116 1.261-.641 1.613-4.951 6.199-8.277 11.41-8.277 6.617 0 12 5.383 12 12s-5.383 12-12 12c-5.226 0-9.815-3.338-11.422-8.307-.17-.525-.728-.813-1.259-.644-.525.17-.813.733-.644 1.259 1.874 5.797 7.228 9.692 13.325 9.692 7.72 0 14-6.28 14-14s-6.28-14-14-14z"/><path d="m14.219 20.375c-.342.429-.272 1.063.156 1.405.428.343 1.063.272 1.406-.156l4-5c.052-.067.215-.294.214-.627-.001-.33-.161-.555-.214-.622l-4-5c-.346-.432-.974-.501-1.406-.156-.431.345-.501.974-.156 1.405l2.701 3.376h-14.92c-.553 0-1 .448-1 1s.447 1 1 1h14.92z"/></g></g></svg>