<svg width="100%" height="100%" viewBox="0 0 167 31" fill="none" xmlns="http://www.w3.org/2000/svg">
<path d="M0 7.05078L5.37135 25.0508H167L161.629 7.05078H0Z" fill="#122B5A"/>
<path d="M35.582 20.2891C35.8099 20.2891 35.9238 20.4531 35.9238 20.7812C35.9238 21.1003 35.8646 21.3646 35.7461 21.5742C35.6276 21.7839 35.4909 21.9753 35.3359 22.1484C35.181 22.3216 34.985 22.4857 34.748 22.6406C34.1921 23.0052 33.6042 23.1875 32.9844 23.1875C32.3737 23.1875 31.8861 23.1146 31.5215 22.9688C31.166 22.8138 30.8561 22.5859 30.5918 22.2852C30.0267 21.6562 29.7441 20.7858 29.7441 19.6738C29.7441 18.4889 29.972 17.0443 30.4277 15.3398C30.8835 13.6263 31.321 12.1634 31.7402 10.9512C32.1686 9.72982 32.6061 8.56771 33.0527 7.46484L34.2832 4.33398C32.9342 5.54622 31.2253 8.09375 29.1562 11.9766L25.8477 18.2383C24.0794 21.5378 22.8171 23.1875 22.0605 23.1875C21.3223 23.1875 20.8164 22.8685 20.543 22.2305C20.2969 21.6198 20.1738 20.5853 20.1738 19.127C20.1738 17.6595 20.2878 16.2559 20.5156 14.916C20.7526 13.5671 21.0488 12.25 21.4043 10.9648C22.0241 8.69531 22.8262 6.44401 23.8105 4.21094C22.8535 4.7487 21.7917 5.94727 20.625 7.80664C19.7318 9.29232 19.1029 10.377 18.7383 11.0605L15.2109 17.5547C13.7435 20.2253 12.5632 21.875 11.6699 22.5039C11.0228 22.9596 10.3255 23.1875 9.57812 23.1875C8.9401 23.1875 8.47982 22.987 8.19727 22.5859C8.08789 22.4219 8.0332 22.2715 8.0332 22.1348C8.0332 21.998 8.07422 21.916 8.15625 21.8887C8.72135 21.7337 9.1224 21.5742 9.35938 21.4102C9.58724 21.237 9.8151 21.0638 10.043 20.8906C10.2708 20.7083 10.6035 20.3301 11.041 19.7559C11.4785 19.1725 11.9525 18.4753 12.4629 17.6641C12.9733 16.8438 13.5065 15.9277 14.0625 14.916L15.7988 11.7168C17.403 8.61784 19.0801 6.13411 20.8301 4.26562C21.4499 3.60026 22.0605 3.08529 22.6621 2.7207C23.2637 2.29232 23.9609 2.00521 24.7539 1.85938C24.9727 1.8138 25.1732 1.79102 25.3555 1.79102C25.5469 1.79102 25.7565 1.81836 25.9844 1.87305C26.2214 1.92773 26.4264 2.01432 26.5996 2.13281C27.0007 2.40625 27.1191 2.77083 26.9551 3.22656C26.8822 3.5 26.7409 3.91016 26.5312 4.45703L25.793 6.41211C24.0703 11.1699 23.127 15.4993 22.9629 19.4004C23.446 18.571 23.9336 17.6641 24.4258 16.6797L25.9707 13.6309L27.5977 10.5273C30.1042 5.87891 32.4329 3.21745 34.584 2.54297C35.0306 2.39714 35.4043 2.32422 35.7051 2.32422C36.0059 2.32422 36.2428 2.36523 36.416 2.44727C36.5892 2.52018 36.7441 2.61589 36.8809 2.73438C37.1999 3.02604 37.3092 3.32682 37.209 3.63672C37.1087 3.9375 36.9766 4.32487 36.8125 4.79883L34.8301 10.582L34.1191 12.8516C33.3353 15.4766 32.8704 17.4909 32.7246 18.8945C32.6699 19.487 32.7337 19.9518 32.916 20.2891C33.1074 20.6172 33.3672 20.7812 33.6953 20.7812C34.0234 20.7812 34.2786 20.7585 34.4609 20.7129C34.6523 20.6582 34.8164 20.599 34.9531 20.5352L35.3086 20.3711C35.4089 20.3164 35.5 20.2891 35.582 20.2891Z" fill="#ABDCFF"/>
<path d="M47.9277 11.4844C47.6452 11.4844 47.2441 11.7578 46.7246 12.3047C46.2051 12.8424 45.7539 13.3346 45.3711 13.7812L44.209 15.1758L41.9668 18.0332C41.4382 19.0358 41.0234 19.8698 40.7227 20.5352L39.9844 22.1211C39.793 22.513 39.6243 22.791 39.4785 22.9551C39.3418 23.11 39.1504 23.1875 38.9043 23.1875C38.6673 23.1875 38.4349 23.1419 38.207 23.0508C37.9883 22.9688 37.7969 22.8594 37.6328 22.7227C37.2865 22.431 37.1133 22.112 37.1133 21.7656C37.1133 21.6289 37.2135 21.36 37.4141 20.959L37.9336 19.8516C38.0977 19.5234 38.2891 19.1042 38.5078 18.5938L39.2734 16.7207C40.349 14.0319 40.8867 12.2956 40.8867 11.5117C40.8867 11.0924 40.75 10.7826 40.4766 10.582L40.2031 10.3906C40.112 10.3268 40.0664 10.2174 40.0664 10.0625C40.0664 9.89844 40.1257 9.74349 40.2441 9.59766C40.3717 9.45182 40.5358 9.32422 40.7363 9.21484C41.1465 9.00521 41.5566 8.90039 41.9668 8.90039C42.3861 8.90039 42.7096 8.94596 42.9375 9.03711C43.1654 9.12826 43.3568 9.2513 43.5117 9.40625C43.849 9.72526 44.0176 10.0579 44.0176 10.4043C44.0176 10.7507 43.972 11.1016 43.8809 11.457C43.7988 11.8034 43.6895 12.1589 43.5527 12.5234C43.4251 12.8789 43.2884 13.2298 43.1426 13.5762C42.9967 13.9225 42.8646 14.2233 42.7461 14.4785L42.4727 15.0664C42.3997 15.2122 42.3815 15.2578 42.418 15.2031C43.4297 13.7995 44.0951 12.8971 44.4141 12.4961L45.3711 11.3477C46.0729 10.5273 46.6243 9.98503 47.0254 9.7207C47.8366 9.17383 48.4746 8.90039 48.9395 8.90039C49.4043 8.90039 49.7962 8.95964 50.1152 9.07812C50.4342 9.19661 50.7122 9.36523 50.9492 9.58398C51.4505 10.0488 51.7012 10.6413 51.7012 11.3613C51.7012 12.0814 51.5371 12.8333 51.209 13.6172C50.8809 14.401 50.5938 15.0391 50.3477 15.5312C50.1107 16.0143 49.8828 16.5065 49.6641 17.0078C48.9805 18.5299 48.6387 19.6374 48.6387 20.3301C48.6387 20.64 48.8848 20.7949 49.377 20.7949C49.7598 20.7949 50.1061 20.7129 50.416 20.5488C50.735 20.3848 50.9401 20.3027 51.0312 20.3027C51.2227 20.3027 51.3184 20.3984 51.3184 20.5898C51.3184 21.401 50.9036 22.0801 50.0742 22.627C49.5182 23.0007 49.0078 23.1875 48.543 23.1875C48.0781 23.1875 47.6908 23.1374 47.3809 23.0371C47.0801 22.9368 46.8112 22.7773 46.5742 22.5586C46.0365 22.0755 45.7676 21.401 45.7676 20.5352C45.7676 19.4779 46.1003 18.1562 46.7656 16.5703C47.2487 15.4857 47.5905 14.7428 47.791 14.3418L48.2559 13.3711C48.5384 12.7878 48.6797 12.3275 48.6797 11.9902C48.6797 11.653 48.429 11.4844 47.9277 11.4844Z" fill="#ABDCFF"/>
<path d="M53.9297 18.2656C53.9661 17.4727 54.0983 16.7161 54.3262 15.9961C54.554 15.2669 54.8594 14.5651 55.2422 13.8906C55.625 13.207 56.0716 12.5645 56.582 11.9629C57.1016 11.3522 57.6621 10.819 58.2637 10.3633C59.5671 9.38802 60.8841 8.90039 62.2148 8.90039C63.7734 8.90039 64.8125 9.54297 65.332 10.8281C65.5143 11.2656 65.6009 11.7852 65.5918 12.3867C65.5827 12.9792 65.4688 13.5306 65.25 14.041C65.0312 14.5423 64.7259 15.0026 64.334 15.4219C63.9512 15.832 63.4909 16.2012 62.9531 16.5293C62.4245 16.8574 61.8457 17.1354 61.2168 17.3633C59.9225 17.819 58.5371 18.056 57.0605 18.0742C57.0241 18.2018 57.0013 18.3932 56.9922 18.6484C56.9831 18.9036 57.0104 19.1908 57.0742 19.5098C57.138 19.8197 57.2474 20.0977 57.4023 20.3438C57.7305 20.8906 58.2044 21.1641 58.8242 21.1641C59.8815 21.1641 60.9115 20.8542 61.9141 20.2344C62.2695 20.0247 62.5566 19.8105 62.7754 19.5918C63.0033 19.3639 63.1992 19.25 63.3633 19.25C63.5273 19.25 63.6686 19.3503 63.7871 19.5508C63.9147 19.7422 63.9785 19.9609 63.9785 20.207C63.9785 20.6901 63.8418 21.1094 63.5684 21.4648C62.4199 22.6133 60.7109 23.1875 58.4414 23.1875C57.1016 23.1875 56.026 22.7865 55.2148 21.9844C54.3034 21.0729 53.875 19.8333 53.9297 18.2656ZM61.9141 10.7188C60.957 10.7188 60.0365 11.375 59.1523 12.6875C58.4049 13.8177 57.8034 15.1576 57.3477 16.707C58.8698 16.5521 60.1914 15.9505 61.3125 14.9023C62.3424 13.918 62.8574 12.9746 62.8574 12.0723C62.8574 11.1699 62.543 10.7188 61.9141 10.7188Z" fill="#ABDCFF"/>
<path d="M77.3086 11.4844C76.7799 11.4844 75.8138 12.25 74.4102 13.7812C73.362 14.9753 72.6009 15.873 72.127 16.4746L70.8965 18.0332C70.3678 19.0358 69.9531 19.8698 69.6523 20.5352L68.9141 22.1211C68.7227 22.513 68.554 22.791 68.4082 22.9551C68.2715 23.11 68.0801 23.1875 67.834 23.1875C67.597 23.1875 67.3646 23.1419 67.1367 23.0508C66.918 22.9688 66.7266 22.8594 66.5625 22.7227C66.2161 22.431 66.043 22.112 66.043 21.7656C66.043 21.6289 66.1432 21.36 66.3438 20.959L66.8633 19.8516C67.0273 19.5234 67.2188 19.1042 67.4375 18.5938L68.2031 16.7207C69.2786 14.0319 69.8164 12.2956 69.8164 11.5117C69.8164 11.0924 69.6797 10.7826 69.4062 10.582L69.1328 10.3906C69.0417 10.3268 68.9961 10.2174 68.9961 10.0625C68.9961 9.89844 69.0553 9.74349 69.1738 9.59766C69.3014 9.45182 69.4655 9.32422 69.666 9.21484C70.0762 9.00521 70.4863 8.90039 70.8965 8.90039C71.3158 8.90039 71.6439 8.94596 71.8809 9.03711C72.1178 9.12826 72.3229 9.2513 72.4961 9.40625C72.8424 9.72526 73.0156 10.0579 73.0156 10.4043C73.0156 10.7507 72.9701 11.1016 72.8789 11.457C72.7878 11.8034 72.6738 12.1589 72.5371 12.5234C72.4004 12.8789 72.2546 13.2253 72.0996 13.5625C71.735 14.3464 71.5072 14.8294 71.416 15.0117C71.334 15.1849 71.3112 15.2487 71.3477 15.2031C73.0156 13.043 74.0182 11.7669 74.3555 11.375C75.0573 10.5638 75.6042 10.0078 75.9961 9.70703C76.7161 9.16927 77.3952 8.90039 78.0332 8.90039C78.6803 8.90039 79.1953 9.10091 79.5781 9.50195C79.9609 9.90299 80.1523 10.4316 80.1523 11.0879C80.1523 11.6621 80.0065 12.3366 79.7148 13.1113C79.4232 13.8861 79.2272 14.4284 79.127 14.7383L81.1367 12.0859L82.2578 10.7461C82.9323 9.98958 83.5247 9.49284 84.0352 9.25586C84.5456 9.01888 84.9603 8.90039 85.2793 8.90039C85.6074 8.90039 85.9264 8.95964 86.2363 9.07812C86.5553 9.19661 86.8242 9.36523 87.043 9.58398C87.5078 10.0306 87.7402 10.623 87.7402 11.3613C87.7402 12.0723 87.5762 12.8014 87.248 13.5488C86.9199 14.2962 86.6328 14.9115 86.3867 15.3945C86.1406 15.8685 85.9036 16.347 85.6758 16.8301C85.0104 18.2793 84.6777 19.3548 84.6777 20.0566C84.6777 20.5488 84.8783 20.7949 85.2793 20.7949C85.6621 20.7949 86.0085 20.7129 86.3184 20.5488C86.6374 20.3848 86.8424 20.3027 86.9336 20.3027C87.125 20.3027 87.2207 20.3984 87.2207 20.5898C87.2207 21.401 86.806 22.0801 85.9766 22.627C85.4206 23.0007 84.9102 23.1875 84.4453 23.1875C83.9896 23.1875 83.6204 23.1328 83.3379 23.0234C83.0553 22.9141 82.8001 22.7409 82.5723 22.5039C82.0618 21.9753 81.8066 21.3145 81.8066 20.5215C81.8066 19.7285 81.9069 18.9993 82.1074 18.334C82.3079 17.6686 82.5449 17.026 82.8184 16.4062C83.0918 15.7773 83.3652 15.2031 83.6387 14.6836C83.9212 14.1549 84.1354 13.7357 84.2812 13.4258C84.5729 12.7878 84.7188 12.3184 84.7188 12.0176C84.7188 11.6621 84.5319 11.4844 84.1582 11.4844C83.666 11.4844 82.7819 12.3001 81.5059 13.9316C80.5397 15.1986 79.8698 16.11 79.4961 16.666L78.5527 18.0332C78.0241 19.0358 77.6185 19.8698 77.3359 20.5352L76.6387 22.1211C76.4655 22.513 76.3151 22.791 76.1875 22.9551C76.0599 23.11 75.8822 23.1875 75.6543 23.1875C75.4264 23.1875 75.2031 23.151 74.9844 23.0781C74.7747 23.0052 74.5924 22.9095 74.4375 22.791C74.082 22.5267 73.9043 22.2487 73.9043 21.957C73.9043 21.6562 74 21.2507 74.1914 20.7402C74.3919 20.2207 74.638 19.6419 74.9297 19.0039L76.8438 14.957C77.5273 13.4531 77.8691 12.5007 77.8691 12.0996C77.8691 11.6895 77.6823 11.4844 77.3086 11.4844ZM78.6621 15.3398C78.6712 15.3398 78.6758 15.3353 78.6758 15.3262L78.6895 15.2988C78.6712 15.3171 78.6621 15.3307 78.6621 15.3398Z" fill="#ABDCFF"/>
<path d="M91.1035 22.1211C90.7207 21.7565 90.4199 21.2962 90.2012 20.7402C89.9824 20.1751 89.8685 19.5098 89.8594 18.7441C89.8503 17.9785 89.9414 17.2038 90.1328 16.4199C90.3333 15.6361 90.6113 14.8796 90.9668 14.1504C91.3314 13.4212 91.7643 12.7376 92.2656 12.0996C92.776 11.4616 93.3366 10.9056 93.9473 10.4316C95.278 9.41081 96.6589 8.90039 98.0898 8.90039C99.9674 8.90039 101.239 9.72526 101.904 11.375C102.378 12.569 102.406 14.0137 101.986 15.709C101.604 17.2676 100.902 18.6986 99.8809 20.002C98.8691 21.3053 97.6751 22.2305 96.2988 22.7773C95.6061 23.0508 94.9225 23.1875 94.248 23.1875C93.5827 23.1875 92.9857 23.1009 92.457 22.9277C91.9375 22.7546 91.4863 22.4857 91.1035 22.1211ZM93.7148 15.4902C93.4414 16.1647 93.2227 16.8574 93.0586 17.5684C92.9036 18.2793 92.8307 18.9538 92.8398 19.5918C92.849 20.2207 92.9447 20.7174 93.127 21.082C93.3184 21.4375 93.6237 21.6152 94.043 21.6152C94.4622 21.6152 94.8724 21.474 95.2734 21.1914C95.6836 20.8997 96.0801 20.5169 96.4629 20.043C96.8457 19.569 97.2057 19.0221 97.543 18.4023C97.8802 17.7826 98.1764 17.1354 98.4316 16.4609C98.9876 14.9935 99.2565 13.6901 99.2383 12.5508C99.2383 11.5482 99.0332 10.9102 98.623 10.6367C98.459 10.5273 98.2266 10.4727 97.9258 10.4727C97.6341 10.4727 97.2969 10.6094 96.9141 10.8828C96.5312 11.1471 96.1484 11.5072 95.7656 11.9629C95.3828 12.4186 95.0137 12.9518 94.6582 13.5625C94.3027 14.1732 93.9883 14.8158 93.7148 15.4902Z" fill="#ABDCFF"/>
<path d="M104.912 22.5039C104.684 22.2669 104.497 21.9661 104.352 21.6016C104.215 21.2279 104.146 20.7995 104.146 20.3164C104.146 19.8242 104.256 19.168 104.475 18.3477C104.702 17.5273 104.99 16.5931 105.336 15.5449L106.484 12.1406C108.116 7.40104 109.059 3.73698 109.314 1.14844C109.396 0.382812 109.77 0 110.436 0C110.855 0 111.201 0.10026 111.475 0.300781C112.003 0.701823 112.258 1.14844 112.24 1.64062C112.222 2.13281 112.135 2.73438 111.98 3.44531C111.826 4.14714 111.625 4.91732 111.379 5.75586C111.133 6.58529 110.85 7.46484 110.531 8.39453L108.645 13.9453C107.56 17.099 107.018 19.1361 107.018 20.0566C107.018 20.5488 107.218 20.7949 107.619 20.7949C108.002 20.7949 108.348 20.7129 108.658 20.5488C108.977 20.3848 109.182 20.3027 109.273 20.3027C109.465 20.3027 109.561 20.3984 109.561 20.5898C109.561 21.401 109.146 22.0801 108.316 22.627C107.76 23.0007 107.25 23.1875 106.785 23.1875C106.329 23.1875 105.96 23.1328 105.678 23.0234C105.395 22.9141 105.14 22.7409 104.912 22.5039Z" fill="#ABDCFF"/>
<path d="M113.334 22.1211C112.951 21.7565 112.65 21.2962 112.432 20.7402C112.213 20.1751 112.099 19.5098 112.09 18.7441C112.081 17.9785 112.172 17.2038 112.363 16.4199C112.564 15.6361 112.842 14.8796 113.197 14.1504C113.562 13.4212 113.995 12.7376 114.496 12.0996C115.007 11.4616 115.567 10.9056 116.178 10.4316C117.508 9.41081 118.889 8.90039 120.32 8.90039C122.198 8.90039 123.469 9.72526 124.135 11.375C124.609 12.569 124.636 14.0137 124.217 15.709C123.834 17.2676 123.132 18.6986 122.111 20.002C121.1 21.3053 119.906 22.2305 118.529 22.7773C117.837 23.0508 117.153 23.1875 116.479 23.1875C115.813 23.1875 115.216 23.1009 114.688 22.9277C114.168 22.7546 113.717 22.4857 113.334 22.1211ZM115.945 15.4902C115.672 16.1647 115.453 16.8574 115.289 17.5684C115.134 18.2793 115.061 18.9538 115.07 19.5918C115.079 20.2207 115.175 20.7174 115.357 21.082C115.549 21.4375 115.854 21.6152 116.273 21.6152C116.693 21.6152 117.103 21.474 117.504 21.1914C117.914 20.8997 118.311 20.5169 118.693 20.043C119.076 19.569 119.436 19.0221 119.773 18.4023C120.111 17.7826 120.407 17.1354 120.662 16.4609C121.218 14.9935 121.487 13.6901 121.469 12.5508C121.469 11.5482 121.264 10.9102 120.854 10.6367C120.689 10.5273 120.457 10.4727 120.156 10.4727C119.865 10.4727 119.527 10.6094 119.145 10.8828C118.762 11.1471 118.379 11.5072 117.996 11.9629C117.613 12.4186 117.244 12.9518 116.889 13.5625C116.533 14.1732 116.219 14.8158 115.945 15.4902Z" fill="#ABDCFF"/>
<path d="M134.484 20.0703C133.099 22.1484 131.563 23.1875 129.877 23.1875C128.355 23.1875 127.329 22.3763 126.801 20.7539C126.618 20.1979 126.527 19.5143 126.527 18.7031C126.527 17.8919 126.641 17.0807 126.869 16.2695C127.106 15.4492 127.425 14.6745 127.826 13.9453C128.227 13.2161 128.697 12.5462 129.234 11.9355C129.781 11.3158 130.365 10.7826 130.984 10.3359C132.279 9.37891 133.564 8.90039 134.84 8.90039C136.116 8.90039 137.027 9.4974 137.574 10.6914C137.684 10.5729 137.784 10.4544 137.875 10.3359C137.966 10.2083 138.066 10.0898 138.176 9.98047C138.413 9.74349 138.618 9.625 138.791 9.625C138.973 9.625 139.16 9.6569 139.352 9.7207C139.552 9.78451 139.743 9.87109 139.926 9.98047C140.372 10.2448 140.541 10.4909 140.432 10.7188C139.93 11.8034 139.511 12.8698 139.174 13.918L137.15 20.3711C135.555 25.2656 133.532 28.4284 131.08 29.8594C130.433 30.2422 129.872 30.4609 129.398 30.5156C128.924 30.5794 128.583 30.584 128.373 30.5293C128.163 30.4746 127.977 30.3971 127.812 30.2969C127.457 30.069 127.279 29.8639 127.279 29.6816C127.279 29.3626 127.489 29.1667 127.908 29.0938C128.337 29.0208 128.783 28.8477 129.248 28.5742C129.713 28.3099 130.155 27.9863 130.574 27.6035C132.297 26.0085 133.6 23.4974 134.484 20.0703ZM130.383 15.3262C130.146 15.9824 129.959 16.6569 129.822 17.3496C129.686 18.0332 129.617 18.5938 129.617 19.0312C129.617 19.4688 129.631 19.8014 129.658 20.0293C129.686 20.2572 129.74 20.4577 129.822 20.6309C130.005 21.0137 130.273 21.2051 130.629 21.2051C130.984 21.2051 131.335 21.082 131.682 20.8359C132.028 20.5807 132.393 20.2344 132.775 19.7969C133.158 19.3594 133.541 18.8444 133.924 18.252C134.307 17.6595 134.671 17.0215 135.018 16.3379C135.783 14.8249 136.321 13.3802 136.631 12.0039C136.585 11.7487 136.43 11.4889 136.166 11.2246C135.646 10.7233 135.177 10.4727 134.758 10.4727C134.339 10.4727 133.919 10.6048 133.5 10.8691C133.081 11.1243 132.68 11.4753 132.297 11.9219C131.923 12.3594 131.572 12.8743 131.244 13.4668C130.916 14.0501 130.629 14.6699 130.383 15.3262Z" fill="#ABDCFF"/>
<path d="M141.211 21.7246C141.102 21.4238 141.047 21.082 141.047 20.6992C141.047 20.3073 141.111 19.8743 141.238 19.4004C141.375 18.9173 141.548 18.416 141.758 17.8965C141.967 17.377 142.195 16.8438 142.441 16.2969L143.18 14.6562C144.128 12.5508 144.479 11.3021 144.232 10.9102C144.123 10.737 143.918 10.5638 143.617 10.3906C143.508 10.3268 143.453 10.2174 143.453 10.0625C143.453 9.89844 143.517 9.74349 143.645 9.59766C143.781 9.45182 143.954 9.32422 144.164 9.21484C144.611 9.00521 145.057 8.90039 145.504 8.90039C145.951 8.90039 146.288 8.95052 146.516 9.05078C146.753 9.14193 146.944 9.26042 147.09 9.40625C147.391 9.70703 147.541 10.0397 147.541 10.4043C147.541 10.7689 147.482 11.179 147.363 11.6348C147.245 12.0814 147.09 12.569 146.898 13.0977C146.707 13.6263 146.497 14.1732 146.27 14.7383C145.641 16.2148 145.217 17.1901 144.998 17.6641L144.492 18.7168C144.21 19.3457 144.068 19.7878 144.068 20.043C144.068 20.2982 144.109 20.4805 144.191 20.5898C144.273 20.6901 144.419 20.7402 144.629 20.7402C144.848 20.7402 145.085 20.6582 145.34 20.4941C145.604 20.3301 145.887 20.1113 146.188 19.8379C146.488 19.5645 146.798 19.25 147.117 18.8945C147.445 18.5299 147.764 18.1517 148.074 17.7598C148.885 16.7572 149.487 15.8958 149.879 15.1758C151.848 11.5482 152.891 9.65234 153.01 9.48828C153.311 9.09635 153.611 8.90039 153.912 8.90039C154.222 8.90039 154.491 8.93685 154.719 9.00977C154.947 9.07357 155.143 9.16927 155.307 9.29688C155.671 9.5612 155.781 9.85742 155.635 10.1855C155.498 10.5137 155.329 10.9648 155.129 11.5391C153.397 16.5612 152.271 19.6921 151.752 20.9316C151.242 22.1712 150.795 23.1647 150.412 23.9121C150.029 24.6686 149.578 25.4297 149.059 26.1953C148.548 26.9609 148.001 27.6582 147.418 28.2871C146.087 29.709 144.839 30.4701 143.672 30.5703C143.225 30.6068 142.87 30.543 142.605 30.3789C142.15 30.1055 141.922 29.8457 141.922 29.5996C141.922 29.3535 142.127 29.1803 142.537 29.0801C142.956 28.9889 143.385 28.7975 143.822 28.5059C144.269 28.2233 144.697 27.8906 145.107 27.5078C146.311 26.3594 147.245 25.1107 147.91 23.7617C148.475 22.5768 148.931 21.4557 149.277 20.3984L150.344 17.1445C150.079 17.4635 149.788 17.8372 149.469 18.2656L148.484 19.5781C147.628 20.6628 146.917 21.4329 146.352 21.8887C145.276 22.7546 144.314 23.1875 143.467 23.1875C142.337 23.1875 141.585 22.6999 141.211 21.7246Z" fill="#ABDCFF"/>
</svg>
