<svg width="100%" height="100%" viewBox="0 0 922 194" fill="none" xmlns="http://www.w3.org/2000/svg">
<path d="M281.59 137.327C279.99 137.327 278.66 136.797 277.61 135.747C276.56 134.697 276.03 133.367 276.03 131.767V83.2471C276.03 81.5771 276.56 80.2271 277.61 79.2171C278.66 78.1971 279.99 77.6871 281.59 77.6871C283.26 77.6871 284.61 78.1971 285.62 79.2171C286.64 80.2371 287.15 81.5771 287.15 83.2471V131.767C287.15 133.367 286.64 134.697 285.62 135.747C284.61 136.797 283.26 137.327 281.59 137.327ZM318.01 137.327C316.41 137.327 315.08 136.797 314.03 135.747C312.98 134.697 312.45 133.367 312.45 131.767V100.587C312.45 96.0071 311.32 92.6071 309.07 90.3971C306.82 88.1771 303.87 87.0671 300.24 87.0671C296.46 87.0671 293.33 88.3771 290.86 90.9971C288.39 93.6171 287.15 96.9571 287.15 101.027H280.28C280.28 96.3071 281.22 92.1371 283.11 88.5471C285 84.9471 287.62 82.1371 290.96 80.0971C294.3 78.0671 298.12 77.0471 302.41 77.0471C306.55 77.0471 310.22 77.9571 313.42 79.7771C316.62 81.5971 319.11 84.2671 320.89 87.7871C322.67 91.3171 323.56 95.5871 323.56 100.597V131.777C323.56 133.377 323.05 134.707 322.03 135.757C321.03 136.797 319.68 137.327 318.01 137.327ZM354.32 137.327C352.72 137.327 351.39 136.797 350.34 135.747C349.29 134.697 348.76 133.367 348.76 131.767V100.587C348.76 96.0071 347.63 92.6071 345.38 90.3971C343.13 88.1771 340.18 87.0671 336.55 87.0671C332.77 87.0671 329.66 88.3771 327.23 90.9971C324.79 93.6171 323.58 96.9571 323.58 101.027H314.53C314.53 96.3071 315.55 92.1371 317.58 88.5471C319.61 84.9471 322.47 82.1371 326.14 80.0971C329.81 78.0671 334.01 77.0471 338.73 77.0471C342.87 77.0471 346.54 77.9571 349.74 79.7771C352.94 81.5971 355.43 84.2671 357.21 87.7871C358.99 91.3171 359.88 95.5871 359.88 100.597V131.777C359.88 133.377 359.37 134.707 358.35 135.757C357.33 136.797 355.99 137.327 354.32 137.327Z" fill="#D1D1D1"/>
<path d="M383.86 137.327C382.26 137.327 380.93 136.797 379.88 135.747C378.83 134.697 378.3 133.367 378.3 131.767V83.1371C378.3 81.4671 378.83 80.1171 379.88 79.1071C380.93 78.0871 382.26 77.5771 383.86 77.5771C385.53 77.5771 386.88 78.0871 387.89 79.1071C388.91 80.1271 389.42 81.4671 389.42 83.1371V131.767C389.42 133.367 388.91 134.697 387.89 135.747C386.88 136.797 385.54 137.327 383.86 137.327ZM428.68 137.327C427.08 137.327 425.75 136.797 424.7 135.747C423.65 134.697 423.12 133.367 423.12 131.767V104.947C423.12 100.807 422.36 97.4271 420.83 94.8071C419.3 92.1871 417.25 90.2471 414.67 88.9771C412.09 87.7071 409.13 87.0671 405.78 87.0671C402.73 87.0671 399.96 87.6871 397.49 88.9171C395.02 90.1571 393.06 91.8071 391.6 93.8771C390.14 95.9471 389.42 98.3271 389.42 101.017H382.55C382.55 96.4371 383.66 92.3471 385.88 88.7471C388.1 85.1471 391.13 82.2971 394.98 80.1871C398.83 78.0771 403.16 77.0271 407.96 77.0271C412.98 77.0271 417.46 78.0971 421.43 80.2471C425.39 82.3971 428.52 85.5371 430.81 89.6771C433.1 93.8171 434.24 98.9071 434.24 104.937V131.757C434.24 133.357 433.71 134.687 432.66 135.737C431.6 136.797 430.28 137.327 428.68 137.327Z" fill="#D1D1D1"/>
<path d="M480.69 137.657C474.66 137.657 469.3 136.367 464.61 133.787C459.92 131.207 456.25 127.647 453.6 123.097C450.95 118.557 449.62 113.337 449.62 107.447C449.62 101.487 450.87 96.2372 453.38 91.6972C455.89 87.1572 459.36 83.5972 463.79 81.0072C468.22 78.4272 473.31 77.1372 479.06 77.1372C484.73 77.1372 489.6 78.3872 493.67 80.8972C497.74 83.4072 500.85 86.8572 502.99 91.2572C505.13 95.6572 506.21 100.727 506.21 106.467C506.21 107.847 505.74 108.997 504.79 109.897C503.84 110.807 502.64 111.257 501.19 111.257H457.24V102.537H500.85L496.38 105.587C496.31 101.957 495.58 98.6972 494.2 95.8272C492.82 92.9572 490.86 90.6872 488.31 89.0172C485.77 87.3472 482.68 86.5072 479.04 86.5072C474.9 86.5072 471.35 87.4172 468.41 89.2372C465.46 91.0572 463.23 93.5472 461.7 96.7072C460.17 99.8672 459.41 103.447 459.41 107.447C459.41 111.447 460.32 115.007 462.14 118.137C463.96 121.267 466.46 123.737 469.66 125.547C472.86 127.367 476.53 128.277 480.67 128.277C482.92 128.277 485.23 127.857 487.59 127.027C489.95 126.197 491.86 125.227 493.31 124.137C494.4 123.337 495.58 122.917 496.85 122.887C498.12 122.847 499.23 123.237 500.18 124.027C501.41 125.117 502.07 126.317 502.14 127.627C502.21 128.937 501.63 130.067 500.4 131.007C497.93 132.967 494.86 134.567 491.19 135.807C487.54 137.037 484.03 137.657 480.69 137.657Z" fill="#D1D1D1"/>
<path d="M525.93 137.327C524.33 137.327 523 136.797 521.95 135.747C520.9 134.697 520.37 133.367 520.37 131.767V83.2471C520.37 81.5771 520.9 80.2271 521.95 79.2171C523 78.1971 524.33 77.6871 525.93 77.6871C527.6 77.6871 528.95 78.1971 529.96 79.2171C530.98 80.2371 531.49 81.5771 531.49 83.2471V131.767C531.49 133.367 530.98 134.697 529.96 135.747C528.95 136.797 527.6 137.327 525.93 137.327ZM562.35 137.327C560.75 137.327 559.42 136.797 558.37 135.747C557.32 134.697 556.79 133.367 556.79 131.767V100.587C556.79 96.0071 555.66 92.6071 553.41 90.3971C551.16 88.1771 548.21 87.0671 544.58 87.0671C540.8 87.0671 537.67 88.3771 535.2 90.9971C532.73 93.6171 531.49 96.9571 531.49 101.027H524.62C524.62 96.3071 525.56 92.1371 527.45 88.5471C529.34 84.9471 531.96 82.1371 535.3 80.0971C538.64 78.0671 542.46 77.0471 546.75 77.0471C550.89 77.0471 554.56 77.9571 557.76 79.7771C560.96 81.5971 563.45 84.2671 565.23 87.7871C567.01 91.3171 567.9 95.5871 567.9 100.597V131.777C567.9 133.377 567.39 134.707 566.37 135.757C565.37 136.797 564.02 137.327 562.35 137.327ZM598.66 137.327C597.06 137.327 595.73 136.797 594.68 135.747C593.63 134.697 593.1 133.367 593.1 131.767V100.587C593.1 96.0071 591.97 92.6071 589.72 90.3971C587.47 88.1771 584.52 87.0671 580.89 87.0671C577.11 87.0671 574 88.3771 571.57 90.9971C569.13 93.6171 567.92 96.9571 567.92 101.027H558.87C558.87 96.3071 559.89 92.1371 561.92 88.5471C563.95 84.9471 566.81 82.1371 570.48 80.0971C574.15 78.0671 578.35 77.0471 583.07 77.0471C587.21 77.0471 590.88 77.9571 594.08 79.7771C597.28 81.5971 599.77 84.2671 601.55 87.7871C603.33 91.3171 604.22 95.5871 604.22 100.597V131.777C604.22 133.377 603.71 134.707 602.69 135.757C601.67 136.797 600.33 137.327 598.66 137.327Z" fill="#D1D1D1"/>
<path d="M649.69 137.657C643.8 137.657 638.6 136.367 634.1 133.787C629.59 131.207 626.05 127.647 623.47 123.097C620.89 118.557 619.6 113.337 619.6 107.447C619.6 101.487 620.89 96.2372 623.47 91.6972C626.05 87.1572 629.59 83.5972 634.1 81.0072C638.61 78.4272 643.8 77.1372 649.69 77.1372C655.5 77.1372 660.66 78.4272 665.17 81.0072C669.68 83.5872 673.22 87.1472 675.8 91.6972C678.38 96.2372 679.67 101.497 679.67 107.447C679.67 113.337 678.4 118.547 675.85 123.097C673.31 127.637 669.78 131.207 665.27 133.787C660.77 136.367 655.57 137.657 649.69 137.657ZM649.69 127.837C653.47 127.837 656.81 126.967 659.72 125.217C662.63 123.477 664.9 121.077 666.53 118.017C668.17 114.967 668.98 111.437 668.98 107.437C668.98 103.437 668.16 99.8972 666.53 96.8072C664.89 93.7172 662.62 91.2972 659.72 89.5572C656.81 87.8172 653.47 86.9372 649.69 86.9372C645.91 86.9372 642.57 87.8072 639.66 89.5572C636.75 91.2972 634.46 93.7172 632.79 96.8072C631.12 99.8972 630.28 103.437 630.28 107.437C630.28 111.437 631.11 114.957 632.79 118.017C634.46 121.067 636.75 123.467 639.66 125.217C642.56 126.967 645.91 127.837 649.69 127.837Z" fill="#D1D1D1"/>
<path d="M710.42 137.217C707.22 137.217 704.39 136.347 701.92 134.597C699.45 132.857 697.52 130.477 696.14 127.457C694.76 124.437 694.07 120.967 694.07 117.047V57.5171C694.07 55.9171 694.58 54.6071 695.6 53.5871C696.62 52.5671 697.93 52.0571 699.52 52.0571C701.12 52.0571 702.43 52.5671 703.44 53.5871C704.46 54.6071 704.97 55.9171 704.97 57.5171V117.047C704.97 119.737 705.48 121.957 706.5 123.697C707.52 125.447 708.83 126.317 710.42 126.317H713.15C714.6 126.317 715.78 126.827 716.69 127.847C717.6 128.867 718.05 130.177 718.05 131.767C718.05 133.367 717.36 134.677 715.98 135.697C714.6 136.717 712.82 137.227 710.64 137.227H710.42V137.217Z" fill="#D1D1D1"/>
<path d="M752.72 137.657C746.83 137.657 741.63 136.367 737.13 133.787C732.62 131.207 729.08 127.647 726.5 123.097C723.92 118.557 722.63 113.337 722.63 107.447C722.63 101.487 723.92 96.2372 726.5 91.6972C729.08 87.1572 732.62 83.5972 737.13 81.0072C741.64 78.4272 746.83 77.1372 752.72 77.1372C758.53 77.1372 763.69 78.4272 768.2 81.0072C772.71 83.5872 776.25 87.1472 778.83 91.6972C781.41 96.2372 782.7 101.497 782.7 107.447C782.7 113.337 781.43 118.547 778.88 123.097C776.34 127.637 772.81 131.207 768.3 133.787C763.8 136.367 758.61 137.657 752.72 137.657ZM752.72 127.837C756.5 127.837 759.84 126.967 762.75 125.217C765.66 123.477 767.93 121.077 769.56 118.017C771.2 114.967 772.01 111.437 772.01 107.437C772.01 103.437 771.19 99.8972 769.56 96.8072C767.92 93.7172 765.65 91.2972 762.75 89.5572C759.84 87.8172 756.5 86.9372 752.72 86.9372C748.94 86.9372 745.6 87.8072 742.69 89.5572C739.78 91.2972 737.49 93.7172 735.82 96.8072C734.15 99.8972 733.31 103.437 733.31 107.437C733.31 111.437 734.14 114.957 735.82 118.017C737.49 121.067 739.78 123.467 742.69 125.217C745.59 126.967 748.94 127.837 752.72 127.837Z" fill="#D1D1D1"/>
<path d="M824.14 137.657C818.69 137.657 813.87 136.367 809.69 133.787C805.51 131.207 802.22 127.647 799.82 123.097C797.42 118.557 796.22 113.337 796.22 107.447C796.22 101.487 797.51 96.2372 800.09 91.6972C802.67 87.1572 806.21 83.5972 810.72 81.0072C815.23 78.4272 820.42 77.1372 826.31 77.1372C832.12 77.1372 837.28 78.4272 841.79 81.0072C846.3 83.5872 849.84 87.1472 852.42 91.6972C855 96.2372 856.29 101.497 856.29 107.447H849.86C849.86 113.337 848.75 118.547 846.53 123.097C844.31 127.637 841.28 131.207 837.43 133.787C833.58 136.367 829.15 137.657 824.14 137.657ZM826.1 161.967C820.94 161.967 816.1 160.947 811.6 158.917C807.09 156.877 803.28 153.907 800.15 149.977C799.2 148.737 798.86 147.467 799.11 146.157C799.36 144.847 800.07 143.797 801.24 142.997C802.55 142.127 803.91 141.837 805.33 142.127C806.75 142.417 807.89 143.147 808.76 144.307C810.72 146.777 813.19 148.707 816.17 150.087C819.15 151.467 822.53 152.157 826.31 152.157C829.8 152.157 833.02 151.317 835.96 149.647C838.9 147.977 841.25 145.507 842.99 142.237C844.74 138.967 845.61 134.967 845.61 130.247V114.767L849.21 105.177L856.3 107.467V131.017C856.3 136.757 855.03 141.977 852.48 146.667C849.94 151.357 846.39 155.077 841.85 157.847C837.31 160.587 832.06 161.967 826.1 161.967ZM826.32 127.837C830.1 127.837 833.44 126.967 836.35 125.217C839.26 123.477 841.53 121.077 843.16 118.017C844.8 114.967 845.61 111.437 845.61 107.437C845.61 103.437 844.79 99.8972 843.16 96.8072C841.52 93.7172 839.25 91.2972 836.35 89.5572C833.44 87.8172 830.1 86.9372 826.32 86.9372C822.54 86.9372 819.2 87.8072 816.29 89.5572C813.38 91.2972 811.09 93.7172 809.42 96.8072C807.75 99.8972 806.91 103.437 806.91 107.437C806.91 111.437 807.74 114.957 809.42 118.017C811.09 121.067 813.38 123.467 816.29 125.217C819.19 126.967 822.54 127.837 826.32 127.837Z" fill="#D1D1D1"/>
<path d="M896.42 134.817C895.04 135.397 893.75 135.457 892.55 134.977C891.35 134.507 890.39 133.577 889.66 132.197L864.69 84.7671C863.96 83.3871 863.87 82.0572 864.42 80.7872C864.96 79.5172 865.93 78.5872 867.31 78.0072C868.69 77.4272 870 77.3672 871.24 77.8472C872.48 78.3172 873.42 79.2472 874.07 80.6272L897.95 128.057C898.68 129.437 898.95 130.767 898.77 132.037C898.59 133.307 897.8 134.237 896.42 134.817ZM883.56 163.387C882.83 163.387 881.96 163.167 880.94 162.737C877.74 161.277 876.87 158.997 878.32 155.867L911.57 80.7472C913.02 77.6972 915.31 76.8172 918.44 78.1272C921.71 79.5072 922.62 81.7972 921.17 84.9972L887.81 160.017C886.94 162.257 885.52 163.387 883.56 163.387Z" fill="#D1D1D1"/>
<path d="M39.89 41.8472L39.62 15.1872C39.72 13.7071 39.59 12.1971 39.2 10.6771C37.23 3.06714 29.47 -1.51286 21.85 0.457139C14.24 2.42714 9.65999 10.1871 11.63 17.8071C12.02 19.3171 12.65 20.7071 13.46 21.9571L26.97 46.3971C26.97 46.3971 26.98 46.4072 26.99 46.4072C28.73 49.3972 31.27 51.3572 34.78 50.4472C38.42 49.5072 39.99 45.6271 39.88 42.0171C39.89 42.0271 39.89 41.8472 39.89 41.8472Z" fill="url(#paint0_linear_404_220)"/>
<path d="M212.22 83.2371C202.79 83.2371 195.15 90.8771 195.15 100.307V116.877L187.5 143.197C186.94 145.037 183.83 145.367 182.85 143.827V81.8471C182.85 72.4171 175.21 64.7771 165.78 64.7771C157.81 64.7771 151.13 70.2471 149.26 77.6371V77.5571L136.42 122.977C135.86 124.827 133.41 124.977 132.53 123.397V54.1071C132.53 44.6771 124.89 37.0371 115.46 37.0371C106.03 37.0371 98.39 44.6771 98.39 54.1071V60.3771L86.27 110.047C85.67 112.017 82.9 112.087 82.2 110.147V94.9371C82.2 85.5071 74.56 77.8671 65.13 77.8671C58.39 77.8671 52.58 81.7771 49.81 87.4471V87.3971L49.47 88.1371C49.44 88.1971 49.41 88.2671 49.38 88.3271L41.02 106.727C38.94 110.217 34.03 110.937 31.26 107.977C31.2 107.917 31.15 107.857 31.12 107.807H31.11C28.13 103.607 23.24 100.857 17.7 100.857H16.44C7.36 100.857 0 108.217 0 117.297C0 125.247 5.64 131.867 13.13 133.397C13.13 133.397 13.13 133.397 13.14 133.397C13.63 133.497 14.11 133.577 14.59 133.637C24.09 134.907 33.32 129.777 37.91 121.357L42.44 113.037C43.72 110.697 47.17 110.977 48.04 113.497V142.447C48.04 151.877 55.68 159.517 65.11 159.517C71.92 159.517 77.79 155.517 80.53 149.737V149.767L80.55 149.707C81.29 148.127 81.8 146.417 82.03 144.617L93.09 106.657C93.85 104.177 97.27 103.937 98.36 106.287V155.217C98.36 164.647 106 172.287 115.43 172.287C123.19 172.287 129.73 167.107 131.8 160.017V160.057L143.23 119.587C143.99 117.107 147.58 116.887 148.68 119.247V176.397C148.68 185.827 156.32 193.467 165.75 193.467C173.12 193.467 179.38 188.787 181.77 182.247L181.76 182.917L194.32 139.807C195.05 137.427 197.5 136.987 198.72 139.037C198.72 139.037 198.77 139.077 198.79 139.087C201.92 143.047 206.75 145.597 212.19 145.597C221.62 145.597 229.26 137.957 229.26 128.527V100.277C229.29 90.8771 221.64 83.2371 212.22 83.2371Z" fill="url(#paint1_linear_404_220)"/>
<defs>
<linearGradient id="paint0_linear_404_220" x1="11.1837" y1="25.3495" x2="206.75" y2="25.3495" gradientUnits="userSpaceOnUse">
<stop offset="0.0199" stop-color="#023E8A"/>
<stop offset="1" stop-color="#00B4D8"/>
</linearGradient>
<linearGradient id="paint1_linear_404_220" x1="0.0345" y1="115.254" x2="229.286" y2="115.254" gradientUnits="userSpaceOnUse">
<stop offset="0.0199" stop-color="#023E8A"/>
<stop offset="1" stop-color="#00B4D8"/>
</linearGradient>
</defs>
</svg>
