<svg width="100%" height="100%" viewBox="0 0 922 194" fill="none" xmlns="http://www.w3.org/2000/svg">
<path d="M281.65 137.58C280.05 137.58 278.72 137.05 277.67 136C276.62 134.95 276.09 133.62 276.09 132.02V83.5001C276.09 81.8301 276.62 80.4801 277.67 79.4701C278.72 78.4501 280.05 77.9401 281.65 77.9401C283.32 77.9401 284.67 78.4501 285.68 79.4701C286.7 80.4901 287.21 81.8301 287.21 83.5001V132.02C287.21 133.62 286.7 134.95 285.68 136C284.67 137.05 283.32 137.58 281.65 137.58ZM318.07 137.58C316.47 137.58 315.14 137.05 314.09 136C313.04 134.95 312.51 133.62 312.51 132.02V100.84C312.51 96.2601 311.38 92.8601 309.13 90.6501C306.88 88.4301 303.93 87.3201 300.3 87.3201C296.52 87.3201 293.39 88.6301 290.92 91.2501C288.45 93.8701 287.21 97.2101 287.21 101.28H280.34C280.34 96.5601 281.28 92.39 283.17 88.8C285.06 85.2 287.68 82.3901 291.02 80.3501C294.36 78.3201 298.18 77.3 302.47 77.3C306.61 77.3 310.28 78.2101 313.48 80.0301C316.68 81.8501 319.17 84.5201 320.95 88.0401C322.73 91.5701 323.62 95.8401 323.62 100.85V132.03C323.62 133.63 323.11 134.96 322.09 136.01C321.09 137.05 319.74 137.58 318.07 137.58ZM354.38 137.58C352.78 137.58 351.45 137.05 350.4 136C349.35 134.95 348.82 133.62 348.82 132.02V100.84C348.82 96.2601 347.69 92.8601 345.44 90.6501C343.19 88.4301 340.24 87.3201 336.61 87.3201C332.83 87.3201 329.72 88.6301 327.29 91.2501C324.85 93.8701 323.64 97.2101 323.64 101.28H314.59C314.59 96.5601 315.61 92.39 317.64 88.8C319.67 85.2 322.53 82.3901 326.2 80.3501C329.87 78.3201 334.07 77.3 338.79 77.3C342.93 77.3 346.6 78.2101 349.8 80.0301C353 81.8501 355.49 84.5201 357.27 88.0401C359.05 91.5701 359.94 95.8401 359.94 100.85V132.03C359.94 133.63 359.43 134.96 358.41 136.01C357.39 137.05 356.05 137.58 354.38 137.58Z" fill="#343A40"/>
<path d="M383.93 137.58C382.33 137.58 381 137.05 379.95 136C378.9 134.95 378.37 133.62 378.37 132.02V83.39C378.37 81.72 378.9 80.37 379.95 79.36C381 78.34 382.33 77.83 383.93 77.83C385.6 77.83 386.95 78.34 387.96 79.36C388.98 80.38 389.49 81.72 389.49 83.39V132.02C389.49 133.62 388.98 134.95 387.96 136C386.94 137.05 385.6 137.58 383.93 137.58ZM428.74 137.58C427.14 137.58 425.81 137.05 424.76 136C423.71 134.95 423.18 133.62 423.18 132.02V105.2C423.18 101.06 422.42 97.68 420.89 95.06C419.36 92.44 417.31 90.5 414.73 89.23C412.15 87.96 409.19 87.32 405.84 87.32C402.79 87.32 400.02 87.94 397.55 89.17C395.08 90.41 393.12 92.06 391.66 94.13C390.2 96.2 389.48 98.58 389.48 101.27H382.61C382.61 96.69 383.72 92.6 385.94 89C388.16 85.4 391.19 82.55 395.04 80.44C398.89 78.33 403.22 77.28 408.02 77.28C413.04 77.28 417.52 78.35 421.49 80.5C425.45 82.65 428.58 85.79 430.87 89.93C433.16 94.07 434.3 99.16 434.3 105.19V132.01C434.3 133.61 433.77 134.94 432.72 135.99C431.66 137.05 430.34 137.58 428.74 137.58Z" fill="#343A40"/>
<path d="M480.75 137.91C474.72 137.91 469.36 136.62 464.67 134.04C459.98 131.46 456.31 127.9 453.66 123.35C451.01 118.81 449.68 113.59 449.68 107.7C449.68 101.74 450.93 96.4901 453.44 91.9501C455.95 87.4101 459.42 83.8501 463.85 81.2601C468.28 78.6801 473.37 77.3901 479.12 77.3901C484.79 77.3901 489.66 78.6401 493.73 81.1501C497.8 83.6601 500.91 87.1101 503.05 91.5101C505.19 95.9101 506.27 100.98 506.27 106.72C506.27 108.1 505.8 109.25 504.85 110.15C503.9 111.06 502.7 111.51 501.25 111.51H457.3V102.79H500.91L496.44 105.84C496.37 102.21 495.64 98.9501 494.26 96.0801C492.88 93.2101 490.92 90.9401 488.37 89.2701C485.83 87.6001 482.74 86.7601 479.1 86.7601C474.96 86.7601 471.41 87.6701 468.47 89.4901C465.52 91.3101 463.29 93.8001 461.76 96.9601C460.23 100.12 459.47 103.7 459.47 107.7C459.47 111.7 460.38 115.26 462.2 118.39C464.02 121.52 466.52 123.99 469.72 125.8C472.92 127.62 476.59 128.53 480.73 128.53C482.98 128.53 485.29 128.11 487.65 127.28C490.01 126.45 491.92 125.48 493.37 124.39C494.46 123.59 495.64 123.17 496.91 123.14C498.18 123.1 499.29 123.49 500.24 124.28C501.47 125.37 502.13 126.57 502.2 127.88C502.27 129.19 501.69 130.32 500.46 131.26C497.99 133.22 494.92 134.82 491.25 136.06C487.6 137.29 484.09 137.91 480.75 137.91Z" fill="#343A40"/>
<path d="M525.99 137.58C524.39 137.58 523.06 137.05 522.01 136C520.96 134.95 520.43 133.62 520.43 132.02V83.5001C520.43 81.8301 520.96 80.4801 522.01 79.4701C523.06 78.4501 524.39 77.9401 525.99 77.9401C527.66 77.9401 529.01 78.4501 530.02 79.4701C531.04 80.4901 531.55 81.8301 531.55 83.5001V132.02C531.55 133.62 531.04 134.95 530.02 136C529.01 137.05 527.67 137.58 525.99 137.58ZM562.41 137.58C560.81 137.58 559.48 137.05 558.43 136C557.38 134.95 556.85 133.62 556.85 132.02V100.84C556.85 96.2601 555.72 92.8601 553.47 90.6501C551.22 88.4301 548.27 87.3201 544.64 87.3201C540.86 87.3201 537.73 88.6301 535.26 91.2501C532.79 93.8701 531.55 97.2101 531.55 101.28H524.68C524.68 96.5601 525.62 92.39 527.51 88.8C529.4 85.2 532.02 82.3901 535.36 80.3501C538.7 78.3201 542.52 77.3 546.81 77.3C550.95 77.3 554.62 78.2101 557.82 80.0301C561.02 81.8501 563.51 84.5201 565.29 88.0401C567.07 91.5701 567.96 95.8401 567.96 100.85V132.03C567.96 133.63 567.45 134.96 566.43 136.01C565.43 137.05 564.08 137.58 562.41 137.58ZM598.72 137.58C597.12 137.58 595.79 137.05 594.74 136C593.69 134.95 593.16 133.62 593.16 132.02V100.84C593.16 96.2601 592.03 92.8601 589.78 90.6501C587.53 88.4301 584.58 87.3201 580.95 87.3201C577.17 87.3201 574.06 88.6301 571.63 91.2501C569.19 93.8701 567.98 97.2101 567.98 101.28H558.93C558.93 96.5601 559.95 92.39 561.98 88.8C564.01 85.2 566.87 82.3901 570.54 80.3501C574.21 78.3201 578.41 77.3 583.13 77.3C587.27 77.3 590.94 78.2101 594.14 80.0301C597.34 81.8501 599.83 84.5201 601.61 88.0401C603.39 91.5701 604.28 95.8401 604.28 100.85V132.03C604.28 133.63 603.77 134.96 602.75 136.01C601.73 137.05 600.39 137.58 598.72 137.58Z" fill="#343A40"/>
<path d="M649.75 137.91C643.86 137.91 638.66 136.62 634.16 134.04C629.65 131.46 626.11 127.9 623.53 123.35C620.95 118.81 619.66 113.59 619.66 107.7C619.66 101.74 620.95 96.4901 623.53 91.9501C626.11 87.4101 629.65 83.8501 634.16 81.2601C638.67 78.6801 643.86 77.3901 649.75 77.3901C655.56 77.3901 660.72 78.6801 665.23 81.2601C669.74 83.8401 673.28 87.4001 675.86 91.9501C678.44 96.4901 679.73 101.75 679.73 107.7C679.73 113.59 678.46 118.8 675.91 123.35C673.37 127.89 669.84 131.46 665.33 134.04C660.83 136.62 655.63 137.91 649.75 137.91ZM649.75 128.09C653.53 128.09 656.87 127.22 659.78 125.47C662.69 123.73 664.96 121.33 666.59 118.27C668.23 115.22 669.04 111.69 669.04 107.69C669.04 103.69 668.22 100.15 666.59 97.0601C664.95 93.9701 662.68 91.5501 659.78 89.8101C656.87 88.0701 653.53 87.1901 649.75 87.1901C645.97 87.1901 642.63 88.0601 639.72 89.8101C636.81 91.5501 634.52 93.9701 632.85 97.0601C631.18 100.15 630.34 103.69 630.34 107.69C630.34 111.69 631.17 115.21 632.85 118.27C634.52 121.32 636.81 123.72 639.72 125.47C642.62 127.22 645.97 128.09 649.75 128.09Z" fill="#343A40"/>
<path d="M710.48 137.47C707.28 137.47 704.45 136.6 701.98 134.85C699.51 133.11 697.58 130.73 696.2 127.71C694.82 124.69 694.13 121.22 694.13 117.3V57.7701C694.13 56.1701 694.64 54.8601 695.66 53.8401C696.68 52.8201 697.99 52.3101 699.58 52.3101C701.18 52.3101 702.49 52.8201 703.5 53.8401C704.52 54.8601 705.03 56.1701 705.03 57.7701V117.3C705.03 119.99 705.54 122.21 706.56 123.95C707.58 125.7 708.89 126.57 710.48 126.57H713.21C714.66 126.57 715.84 127.08 716.75 128.1C717.66 129.12 718.11 130.43 718.11 132.02C718.11 133.62 717.42 134.93 716.04 135.95C714.66 136.97 712.88 137.48 710.7 137.48H710.48V137.47Z" fill="#343A40"/>
<path d="M752.78 137.91C746.89 137.91 741.69 136.62 737.19 134.04C732.68 131.46 729.14 127.9 726.56 123.35C723.98 118.81 722.69 113.59 722.69 107.7C722.69 101.74 723.98 96.4901 726.56 91.9501C729.14 87.4101 732.68 83.8501 737.19 81.2601C741.7 78.6801 746.89 77.3901 752.78 77.3901C758.59 77.3901 763.75 78.6801 768.26 81.2601C772.77 83.8401 776.31 87.4001 778.89 91.9501C781.47 96.4901 782.76 101.75 782.76 107.7C782.76 113.59 781.49 118.8 778.94 123.35C776.4 127.89 772.87 131.46 768.36 134.04C763.86 136.62 758.67 137.91 752.78 137.91ZM752.78 128.09C756.56 128.09 759.9 127.22 762.81 125.47C765.72 123.73 767.99 121.33 769.62 118.27C771.26 115.22 772.07 111.69 772.07 107.69C772.07 103.69 771.25 100.15 769.62 97.0601C767.98 93.9701 765.71 91.5501 762.81 89.8101C759.9 88.0701 756.56 87.1901 752.78 87.1901C749 87.1901 745.66 88.0601 742.75 89.8101C739.84 91.5501 737.55 93.9701 735.88 97.0601C734.21 100.15 733.37 103.69 733.37 107.69C733.37 111.69 734.2 115.21 735.88 118.27C737.55 121.32 739.84 123.72 742.75 125.47C745.66 127.22 749 128.09 752.78 128.09Z" fill="#343A40"/>
<path d="M824.2 137.91C818.75 137.91 813.93 136.62 809.75 134.04C805.57 131.46 802.28 127.9 799.88 123.35C797.48 118.81 796.28 113.59 796.28 107.7C796.28 101.74 797.57 96.4901 800.15 91.9501C802.73 87.4101 806.27 83.8501 810.78 81.2601C815.29 78.6801 820.48 77.3901 826.37 77.3901C832.18 77.3901 837.34 78.6801 841.85 81.2601C846.36 83.8401 849.9 87.4001 852.48 91.9501C855.06 96.4901 856.35 101.75 856.35 107.7H849.92C849.92 113.59 848.81 118.8 846.59 123.35C844.37 127.89 841.34 131.46 837.49 134.04C833.64 136.62 829.21 137.91 824.2 137.91ZM826.16 162.22C821 162.22 816.16 161.2 811.66 159.17C807.15 157.13 803.34 154.16 800.21 150.23C799.26 148.99 798.92 147.72 799.17 146.41C799.42 145.1 800.13 144.05 801.3 143.25C802.61 142.38 803.97 142.09 805.39 142.38C806.81 142.67 807.95 143.4 808.82 144.56C810.78 147.03 813.25 148.96 816.23 150.34C819.21 151.72 822.59 152.41 826.37 152.41C829.86 152.41 833.08 151.57 836.02 149.9C838.96 148.23 841.31 145.76 843.05 142.49C844.8 139.22 845.67 135.22 845.67 130.5V115.02L849.27 105.43L856.36 107.72V131.27C856.36 137.01 855.09 142.23 852.54 146.92C850 151.61 846.45 155.33 841.91 158.1C837.37 160.84 832.12 162.22 826.16 162.22ZM826.38 128.09C830.16 128.09 833.5 127.22 836.41 125.47C839.32 123.73 841.59 121.33 843.22 118.27C844.86 115.22 845.67 111.69 845.67 107.69C845.67 103.69 844.85 100.15 843.22 97.0601C841.58 93.9701 839.31 91.5501 836.41 89.8101C833.5 88.0701 830.16 87.1901 826.38 87.1901C822.6 87.1901 819.26 88.0601 816.35 89.8101C813.44 91.5501 811.15 93.9701 809.48 97.0601C807.81 100.15 806.97 103.69 806.97 107.69C806.97 111.69 807.8 115.21 809.48 118.27C811.15 121.32 813.44 123.72 816.35 125.47C819.25 127.22 822.6 128.09 826.38 128.09Z" fill="#343A40"/>
<path d="M896.48 135.07C895.1 135.65 893.81 135.71 892.61 135.23C891.41 134.76 890.45 133.83 889.72 132.45L864.75 85.0201C864.02 83.6401 863.93 82.3101 864.48 81.0401C865.02 79.7701 865.99 78.8401 867.37 78.2601C868.75 77.6801 870.06 77.6201 871.3 78.1001C872.54 78.5701 873.48 79.5001 874.13 80.8801L898.01 128.31C898.74 129.69 899.01 131.02 898.83 132.29C898.65 133.56 897.86 134.49 896.48 135.07ZM883.62 163.64C882.89 163.64 882.02 163.42 881 162.99C877.8 161.53 876.93 159.25 878.38 156.12L911.63 81.0001C913.08 77.9501 915.37 77.0701 918.5 78.3801C921.77 79.7601 922.68 82.0501 921.23 85.2501L887.87 160.27C887 162.51 885.58 163.64 883.62 163.64Z" fill="#343A40"/>
<path d="M39.95 42.1001L39.6801 15.4401C39.7801 13.9601 39.6501 12.4501 39.2601 10.9301C37.2901 3.32007 29.5301 -1.25993 21.9101 0.710069C14.3001 2.68007 9.72005 10.4401 11.69 18.0601C12.08 19.5701 12.7101 20.9601 13.5201 22.2101L27.03 46.6501C27.03 46.6501 27.0401 46.6601 27.0501 46.6601C28.7901 49.6501 31.33 51.6101 34.84 50.7001C38.48 49.7601 40.0501 45.8801 39.9401 42.2701C39.9501 42.2801 39.95 42.1001 39.95 42.1001Z" fill="url(#paint0_linear_403_38)"/>
<path d="M212.28 83.49C202.85 83.49 195.21 91.13 195.21 100.56V117.13L187.56 143.45C187 145.29 183.89 145.62 182.91 144.08V82.1C182.91 72.67 175.27 65.03 165.84 65.03C157.87 65.03 151.19 70.5 149.32 77.89V77.81L136.48 123.23C135.92 125.08 133.47 125.23 132.59 123.65V54.36C132.59 44.93 124.95 37.29 115.52 37.29C106.09 37.29 98.4501 44.93 98.4501 54.36V60.63L86.3301 110.3C85.7301 112.27 82.9601 112.34 82.2601 110.4V95.19C82.2601 85.76 74.6201 78.12 65.1901 78.12C58.4501 78.12 52.6401 82.03 49.8701 87.7V87.65L49.5301 88.39C49.5001 88.45 49.4701 88.52 49.4401 88.58L41.0801 106.98C39.0001 110.47 34.0901 111.19 31.3201 108.23C31.2601 108.17 31.2101 108.11 31.1801 108.06H31.1701C28.1901 103.86 23.3001 101.11 17.7601 101.11H16.5001C7.42006 101.11 0.0600586 108.47 0.0600586 117.55C0.0600586 125.5 5.70006 132.12 13.1901 133.65C13.1901 133.65 13.1901 133.65 13.2001 133.65C13.6901 133.75 14.1701 133.83 14.6501 133.89C24.1501 135.16 33.3801 130.03 37.9701 121.61L42.5001 113.29C43.7801 110.95 47.2301 111.23 48.1001 113.75V142.7C48.1001 152.13 55.7401 159.77 65.1701 159.77C71.9801 159.77 77.8501 155.77 80.5901 149.99V150.02L80.6101 149.96C81.3501 148.38 81.8601 146.67 82.0901 144.87L93.1501 106.91C93.9101 104.43 97.3301 104.19 98.4201 106.54V155.47C98.4201 164.9 106.06 172.54 115.49 172.54C123.25 172.54 129.79 167.36 131.86 160.27V160.31L143.29 119.84C144.05 117.36 147.64 117.14 148.74 119.5V176.65C148.74 186.08 156.38 193.72 165.81 193.72C173.18 193.72 179.44 189.04 181.83 182.5L181.82 183.17L194.38 140.06C195.11 137.68 197.56 137.24 198.78 139.29C198.78 139.29 198.83 139.33 198.85 139.34C201.98 143.3 206.81 145.85 212.25 145.85C221.68 145.85 229.32 138.21 229.32 128.78V100.53C229.35 91.13 221.7 83.49 212.28 83.49Z" fill="url(#paint1_linear_403_38)"/>
<defs>
<linearGradient id="paint0_linear_403_38" x1="11.2442" y1="25.6025" x2="206.811" y2="25.6025" gradientUnits="userSpaceOnUse">
<stop offset="0.0199" stop-color="#023E8A"/>
<stop offset="1" stop-color="#00B4D8"/>
</linearGradient>
<linearGradient id="paint1_linear_403_38" x1="0.0950586" y1="115.507" x2="229.346" y2="115.507" gradientUnits="userSpaceOnUse">
<stop offset="0.0199" stop-color="#023E8A"/>
<stop offset="1" stop-color="#00B4D8"/>
</linearGradient>
</defs>
</svg>
