<svg enable-background="new 0 0 512 512" height="100%" viewBox="0 0 512 512" width="100%" xmlns="http://www.w3.org/2000/svg"><g id="_x33_3_Repeat"><g><path d="m508.696 273.931-94.634 90.352c-2.481 2.414-6.256 3.531-10.132 2.454-3.604-1.045-6.319-3.917-7.207-7.573l-30.97-127.066c-.888-3.604.261-7.469 2.925-10.028 2.716-2.559 6.581-3.499 10.184-2.454l25.539 7.468c-7.338-38.874-30.322-74.243-64.29-96.984-50.451-33.634-115.942-34.052-166.863-.94-17.16 11.257-40.709 2.454-45.593-17.861-3.029-12.378 2.246-25.486 13.109-32.537 71.027-46.064 162.319-45.541 232.615 1.358 53.786 36.008 90.034 95.837 93.746 165.296l37.29 10.915c3.551 1.045 6.319 3.969 7.207 7.573.887 3.604-.262 7.468-2.926 10.027z"/><path d="m384.398 400.789c3.029 12.325-2.193 25.382-12.9 32.38-67.88 44.359-159.802 47.431-232.877-1.358-53.46-35.79-90.02-95.565-93.746-165.296l-37.289-10.915c-3.552-1.045-6.319-3.917-7.207-7.573-.888-3.604.261-7.416 2.925-10.027l94.634-90.299c2.664-2.611 6.581-3.551 10.132-2.507 3.604 1.045 6.319 3.917 7.207 7.573l30.97 127.066c.888 3.656-.261 7.468-2.925 10.028-2.716 2.611-6.581 3.551-10.184 2.507l-25.539-7.521c7.051 37.542 29.233 73.618 64.29 97.089 52.885 35.12 118.653 32.421 166.497 1.097 17.437-11.372 41.087-2.729 46.012 17.756z"/></g></g></svg>