<svg width="100%" height="100%"  viewBox="0 0 109 169"  xmlns="http://www.w3.org/2000/svg">
<path d="M53.6 168.8C43.2 168.8 34 166.6 26 162.2C18 157.8 11.7333 151.667 7.2 143.8C2.66667 135.933 0.400001 126.933 0.400001 116.8C0.400001 106.667 2.53333 97.7333 6.8 90C11.0667 82.2667 16.9333 76.2 24.4 71.8C32 67.4 40.6667 65.2 50.4 65.2C59.8667 65.2 68.2667 67.4 75.6 71.8C82.9333 76.0667 88.6667 81.9333 92.8 89.4C96.9333 96.8667 99 105.6 99 115.6H108.2C108.2 125.867 105.8 135.067 101 143.2C96.3333 151.2 89.8667 157.467 81.6 162C73.4667 166.533 64.1333 168.8 53.6 168.8ZM53.6 152.4C60.8 152.4 67.1333 150.933 72.6 148C78.2 144.933 82.5333 140.733 85.6 135.4C88.8 130.067 90.4 123.867 90.4 116.8C90.4 110 88.8 104 85.6 98.8C82.5333 93.4667 78.2 89.3333 72.6 86.4C67.1333 83.3333 60.8 81.8 53.6 81.8C46.6667 81.8 40.5333 83.3333 35.2 86.4C29.8667 89.3333 25.6667 93.4667 22.6 98.8C19.6667 104 18.2 110 18.2 116.8C18.2 123.867 19.6667 130.067 22.6 135.4C25.6667 140.733 29.8667 144.933 35.2 148C40.5333 150.933 46.6667 152.4 53.6 152.4ZM94.2 115.8L93.8 97.6C93.6667 86.6667 92.6 77.4 90.6 69.8C88.6 62.0667 85.3333 55.4667 80.8 50C76.2667 44.5333 70.2 39.7333 62.6 35.6C55 31.4667 45.5333 27.5333 34.2 23.8C31 22.7333 28.7333 21.4 27.4 19.8C26.2 18.2 26.0667 16.2 27 13.8C27.8 11.5333 29.2667 10.2667 31.4 10C33.5333 9.59999 35.8 9.86666 38.2 10.8C51.5333 15.6 62.6667 20.6 71.6 25.8C80.5333 31 87.6667 36.8667 93 43.4C98.3333 49.9333 102.133 57.4667 104.4 66C106.8 74.5333 108 84.4 108 95.6L108.2 115.8H94.2ZM38.6 46.8C37 46 35.8667 45 35.2 43.8C34.6667 42.4667 34.9333 40.8667 36 39L54.6 4.19999C55.6667 2.33332 56.8667 1.26666 58.2 0.999992C59.5333 0.733329 61 1.13333 62.6 2.19999C64.4667 3.26666 65.6 4.46666 66 5.79999C66.5333 7.13332 66.4 8.53332 65.6 10L46.8 45C46 46.4667 44.8 47.4 43.2 47.8C41.7333 48.2 40.2 47.8667 38.6 46.8Z"/>
</svg>
