<svg width="100%" height="100%" viewBox="0 0 102 156"  xmlns="http://www.w3.org/2000/svg">
<path d="M50.6 155.6C43.6667 155.6 38.0667 153.2 33.8 148.4C29.6667 143.733 27.6 137.867 27.6 130.8C27.6 126.4 28.2 122.067 29.4 117.8C30.6 113.667 32.1333 109.533 34 105.4C36 101.133 38.2 96.7333 40.6 92.2L0 0.799997H18.8L39.2 49C40.4 51.8 41.7333 55 43.2 58.6C44.6667 62.0667 46 65.6 47.2 69.2C48.5333 72.6667 49.5333 75.8667 50.2 78.8H51C51.8 76.1333 52.8667 73 54.2 69.4C55.5333 65.8 56.9333 62.2 58.4 58.6C59.8667 55 61.2 51.8 62.4 49L82.8 0.799997H101.6L60.6 92.2C64.7333 100.067 67.9333 107.067 70.2 113.2C72.4667 119.333 73.6 125.2 73.6 130.8C73.6 137.733 71.4667 143.6 67.2 148.4C63.0667 153.2 57.5333 155.6 50.6 155.6ZM50.6 141C52.6 141 54.3333 140.133 55.8 138.4C57.2667 136.8 58 134.133 58 130.4C58 127.733 57.4 124.2 56.2 119.8C55 115.4 53.1333 111.133 50.6 107C48.0667 111.133 46.2 115.333 45 119.6C43.8 124 43.2 127.533 43.2 130.2C43.2 133.933 43.9333 136.667 45.4 138.4C46.8667 140.133 48.6 141 50.6 141Z"/>
</svg>
