<svg width="100%" height="100%" viewBox="0 0 129 112"  xmlns="http://www.w3.org/2000/svg">
<path d="M52 112C42.4 112 33.6667 109.667 25.8 105C17.9333 100.2 11.6667 93.6 7 85.2C2.46667 76.8 0.200001 67.2 0.200001 56.4C0.200001 46 2.33333 36.6 6.6 28.2C10.8667 19.8 16.9333 13.1333 24.8 8.2C32.6667 3.13333 41.9333 0.599991 52.6 0.599991C67.1333 0.599991 78.6667 4.79999 87.2 13.2C95.8667 21.6 101.867 33.2 105.2 48L95.2 58C91.8667 46.4 88 37.4667 83.6 31.2C79.3333 24.8 74.5333 20.4 69.2 18C63.8667 15.6 58.0667 14.4 51.8 14.4C44.4667 14.4 38.0667 16.3333 32.6 20.2C27.1333 24.0667 22.8667 29.2 19.8 35.6C16.7333 41.8667 15.2 48.8 15.2 56.4C15.2 64.1333 16.8 71.1333 20 77.4C23.3333 83.6667 27.8 88.6667 33.4 92.4C39 96.1333 45.4 98 52.6 98C59.1333 98 64.7333 96.6667 69.4 94C74.0667 91.3333 78.0667 87.7333 81.4 83.2C84.8667 78.6667 87.8 73.6 90.2 68C92.7333 62.4 95.0667 56.7333 97.2 51L105.2 63.8C102.533 70.8667 99.6 77.3333 96.4 83.2C93.3333 89.0667 89.7333 94.2 85.6 98.6C81.6 102.867 76.8 106.2 71.2 108.6C65.7333 110.867 59.3333 112 52 112ZM122.2 111.8C118.467 111.933 115.933 110.267 114.6 106.8L94.8 56.4L106.2 48.2L128.6 101.4C128.867 101.8 129 102.267 129 102.8C129 103.2 129 103.533 129 103.8C129 106.067 128.4 107.933 127.2 109.4C126 110.867 124.333 111.667 122.2 111.8ZM105 65L94.8 54L111.8 5.99999C112.333 4.4 113.2 3.2 114.4 2.39999C115.6 1.46666 117.133 0.999998 119 0.999998C121.133 0.999998 122.867 1.73333 124.2 3.19999C125.667 4.66666 126.4 6.53333 126.4 8.79999C126.4 9.06666 126.333 9.4 126.2 9.79999C126.2 10.2 126.133 10.6 126 11L105 65Z"/>
</svg>
