<svg width="100%" height="100%" viewBox="0 0 108 204"  xmlns="http://www.w3.org/2000/svg">
<path d="M7.8 203.8C5.4 203.8 3.46667 203.067 2 201.6C0.666667 200.267 7.15256e-07 198.4 7.15256e-07 196V52.2C7.15256e-07 41.6667 1.93333 32.6 5.8 25C9.8 17.2667 15.4667 11.3333 22.8 7.2C30.1333 2.93333 38.8667 0.799996 49 0.799996C57.2667 0.799996 64.7333 2.26666 71.4 5.19999C78.2 8.13332 83.6 12.6 87.6 18.6C91.7333 24.6 93.8 32.0667 93.8 41C93.8 47 92.2667 52.6667 89.2 58C86.2667 63.2 81.6 67.2 75.2 70C83.7333 71.6 90.3333 74.6 95 79C99.8 83.4 103.133 88.4 105 94C107 99.4667 108 104.6 108 109.4C108 119.133 105.733 127.667 101.2 135C96.6667 142.333 90.5333 148 82.8 152C75.2 156 66.8 158 57.6 158C51.0667 158 45.4 157.267 40.6 155.8C35.8 154.2 31.7333 152.333 28.4 150.2C25.2 147.933 22.5333 145.667 20.4 143.4C18.2667 141 16.6 139 15.4 137.4V196C15.4 198.4 14.6667 200.267 13.2 201.6C11.8667 203.067 10.0667 203.8 7.8 203.8ZM57.2 144C63.6 144 69.0667 143 73.6 141C78.2667 138.867 82 136.133 84.8 132.8C87.7333 129.333 89.8667 125.667 91.2 121.8C92.5333 117.933 93.2 114.133 93.2 110.4C93.2 104.133 92.2 99 90.2 95C88.2 91 85.4 87.9333 81.8 85.8C78.3333 83.6667 74.1333 82.2 69.2 81.4C64.4 80.6 59.0667 80.2 53.2 80.2H39.4C37.2667 80.2 35.5333 79.5333 34.2 78.2C33 76.7333 32.4 75.0667 32.4 73.2C32.4 71.2 33 69.5333 34.2 68.2C35.5333 66.7333 37.2667 66 39.4 66H51.6C58.1333 66 63.4667 64.9333 67.6 62.8C71.7333 60.6667 74.7333 57.8 76.6 54.2C78.6 50.4667 79.6 46.2667 79.6 41.6C79.6 34.6667 78 29.2667 74.8 25.4C71.7333 21.4 67.8 18.6 63 17C58.3333 15.2667 53.5333 14.4 48.6 14.4C42.7333 14.4 37.6667 15.3333 33.4 17.2C29.2667 18.9333 25.8667 21.4667 23.2 24.8C20.5333 28.1333 18.5333 32.2 17.2 37C16 41.6667 15.4 46.8667 15.4 52.6L15.2 101.6C15.2 111.467 17.2667 119.533 21.4 125.8C25.5333 132.067 30.8 136.667 37.2 139.6C43.6 142.533 50.2667 144 57.2 144Z"/>
</svg>
