<svg width="100%" height="100%" viewBox="0 0 110 158"  xmlns="http://www.w3.org/2000/svg">
<path d="M55 158C47 158 39.6667 156.6 33 153.8C26.3333 150.867 20.5333 146.867 15.6 141.8C10.6667 136.733 6.86667 130.933 4.2 124.4C1.53333 117.733 0.200001 110.667 0.200001 103.2C0.200001 96.4 1.33333 89.8667 3.6 83.6C6 77.3333 9.4 71.6667 13.8 66.6C18.3333 61.5333 23.8667 57.5333 30.4 54.6C36.9333 51.6667 44.3333 50.2 52.6 50.2L12.6 14C11.8 13.3333 11.2 12.4667 10.8 11.4C10.5333 10.3333 10.4 9.26666 10.4 8.2C10.4 5.93333 11.1333 4.13333 12.6 2.79999C14.0667 1.46666 15.9333 0.799996 18.2 0.799996H95.8C97.9333 0.799996 99.7333 1.4 101.2 2.6C102.667 3.66666 103.4 5.26666 103.4 7.39999C103.4 9.8 102.6 11.5333 101 12.6C99.5333 13.6667 97.7333 14.2 95.6 14.2H35.8L84.6 55C94.0667 63 100.667 71 104.4 79C108.133 86.8667 110 94.9333 110 103.2C110 111.2 108.533 118.533 105.6 125.2C102.667 131.867 98.6 137.667 93.4 142.6C88.3333 147.533 82.4667 151.333 75.8 154C69.2667 156.667 62.3333 158 55 158ZM55 144C62.4667 144 69.2 142.2 75.2 138.6C81.2 134.867 86 129.933 89.6 123.8C93.2 117.667 95 110.8 95 103.2C95 95.2 93.2 88.1333 89.6 82C86 75.7333 81.1333 70.8667 75 67.4C69 63.8 62.3333 62 55 62C47.5333 62 40.8 63.8 34.8 67.4C28.8 70.8667 24 75.7333 20.4 82C16.9333 88.1333 15.2 95.2 15.2 103.2C15.2 110.667 16.9333 117.533 20.4 123.8C24 129.933 28.8 134.867 34.8 138.6C40.8 142.2 47.5333 144 55 144Z" />
</svg>
