<svg width="100%" height="100%" viewBox="0 0 167 32" fill="none" xmlns="http://www.w3.org/2000/svg">
<path d="M0 8L5.37135 26H167L161.629 8H0Z" fill="#ABDCFF"/>
<path d="M35.582 21.2383C35.8099 21.2383 35.9238 21.4023 35.9238 21.7305C35.9238 22.0495 35.8646 22.3138 35.7461 22.5234C35.6276 22.7331 35.4909 22.9245 35.3359 23.0977C35.181 23.2708 34.985 23.4349 34.748 23.5898C34.1921 23.9544 33.6042 24.1367 32.9844 24.1367C32.3737 24.1367 31.8861 24.0638 31.5215 23.918C31.166 23.763 30.8561 23.5352 30.5918 23.2344C30.0267 22.6055 29.7441 21.735 29.7441 20.623C29.7441 19.4382 29.972 17.9935 30.4277 16.2891C30.8835 14.5755 31.321 13.1126 31.7402 11.9004C32.1686 10.679 32.6061 9.51693 33.0527 8.41406L34.2832 5.2832C32.9342 6.49544 31.2253 9.04297 29.1562 12.9258L25.8477 19.1875C24.0794 22.487 22.8171 24.1367 22.0605 24.1367C21.3223 24.1367 20.8164 23.8177 20.543 23.1797C20.2969 22.569 20.1738 21.5345 20.1738 20.0762C20.1738 18.6087 20.2878 17.2051 20.5156 15.8652C20.7526 14.5163 21.0488 13.1992 21.4043 11.9141C22.0241 9.64453 22.8262 7.39323 23.8105 5.16016C22.8535 5.69792 21.7917 6.89648 20.625 8.75586C19.7318 10.2415 19.1029 11.3262 18.7383 12.0098L15.2109 18.5039C13.7435 21.1745 12.5632 22.8242 11.6699 23.4531C11.0228 23.9089 10.3255 24.1367 9.57812 24.1367C8.9401 24.1367 8.47982 23.9362 8.19727 23.5352C8.08789 23.3711 8.0332 23.2207 8.0332 23.084C8.0332 22.9473 8.07422 22.8652 8.15625 22.8379C8.72135 22.6829 9.1224 22.5234 9.35938 22.3594C9.58724 22.1862 9.8151 22.013 10.043 21.8398C10.2708 21.6576 10.6035 21.2793 11.041 20.7051C11.4785 20.1217 11.9525 19.4245 12.4629 18.6133C12.9733 17.793 13.5065 16.877 14.0625 15.8652L15.7988 12.666C17.403 9.56706 19.0801 7.08333 20.8301 5.21484C21.4499 4.54948 22.0605 4.03451 22.6621 3.66992C23.2637 3.24154 23.9609 2.95443 24.7539 2.80859C24.9727 2.76302 25.1732 2.74023 25.3555 2.74023C25.5469 2.74023 25.7565 2.76758 25.9844 2.82227C26.2214 2.87695 26.4264 2.96354 26.5996 3.08203C27.0007 3.35547 27.1191 3.72005 26.9551 4.17578C26.8822 4.44922 26.7409 4.85938 26.5312 5.40625L25.793 7.36133C24.0703 12.1191 23.127 16.4486 22.9629 20.3496C23.446 19.5202 23.9336 18.6133 24.4258 17.6289L25.9707 14.5801L27.5977 11.4766C30.1042 6.82812 32.4329 4.16667 34.584 3.49219C35.0306 3.34635 35.4043 3.27344 35.7051 3.27344C36.0059 3.27344 36.2428 3.31445 36.416 3.39648C36.5892 3.4694 36.7441 3.5651 36.8809 3.68359C37.1999 3.97526 37.3092 4.27604 37.209 4.58594C37.1087 4.88672 36.9766 5.27409 36.8125 5.74805L34.8301 11.5312L34.1191 13.8008C33.3353 16.4258 32.8704 18.4401 32.7246 19.8438C32.6699 20.4362 32.7337 20.901 32.916 21.2383C33.1074 21.5664 33.3672 21.7305 33.6953 21.7305C34.0234 21.7305 34.2786 21.7077 34.4609 21.6621C34.6523 21.6074 34.8164 21.5482 34.9531 21.4844L35.3086 21.3203C35.4089 21.2656 35.5 21.2383 35.582 21.2383Z" fill="#122B5A"/>
<path d="M47.9277 12.4336C47.6452 12.4336 47.2441 12.707 46.7246 13.2539C46.2051 13.7917 45.7539 14.2839 45.3711 14.7305L44.209 16.125L41.9668 18.9824C41.4382 19.985 41.0234 20.819 40.7227 21.4844L39.9844 23.0703C39.793 23.4622 39.6243 23.7402 39.4785 23.9043C39.3418 24.0592 39.1504 24.1367 38.9043 24.1367C38.6673 24.1367 38.4349 24.0911 38.207 24C37.9883 23.918 37.7969 23.8086 37.6328 23.6719C37.2865 23.3802 37.1133 23.0612 37.1133 22.7148C37.1133 22.5781 37.2135 22.3092 37.4141 21.9082L37.9336 20.8008C38.0977 20.4727 38.2891 20.0534 38.5078 19.543L39.2734 17.6699C40.349 14.9811 40.8867 13.2448 40.8867 12.4609C40.8867 12.0417 40.75 11.7318 40.4766 11.5312L40.2031 11.3398C40.112 11.276 40.0664 11.1667 40.0664 11.0117C40.0664 10.8477 40.1257 10.6927 40.2441 10.5469C40.3717 10.401 40.5358 10.2734 40.7363 10.1641C41.1465 9.95443 41.5566 9.84961 41.9668 9.84961C42.3861 9.84961 42.7096 9.89518 42.9375 9.98633C43.1654 10.0775 43.3568 10.2005 43.5117 10.3555C43.849 10.6745 44.0176 11.0072 44.0176 11.3535C44.0176 11.6999 43.972 12.0508 43.8809 12.4062C43.7988 12.7526 43.6895 13.1081 43.5527 13.4727C43.4251 13.8281 43.2884 14.179 43.1426 14.5254C42.9967 14.8717 42.8646 15.1725 42.7461 15.4277L42.4727 16.0156C42.3997 16.1615 42.3815 16.207 42.418 16.1523C43.4297 14.7487 44.0951 13.8464 44.4141 13.4453L45.3711 12.2969C46.0729 11.4766 46.6243 10.9342 47.0254 10.6699C47.8366 10.123 48.4746 9.84961 48.9395 9.84961C49.4043 9.84961 49.7962 9.90885 50.1152 10.0273C50.4342 10.1458 50.7122 10.3145 50.9492 10.5332C51.4505 10.998 51.7012 11.5905 51.7012 12.3105C51.7012 13.0306 51.5371 13.7826 51.209 14.5664C50.8809 15.3503 50.5938 15.9883 50.3477 16.4805C50.1107 16.9635 49.8828 17.4557 49.6641 17.957C48.9805 19.4792 48.6387 20.5866 48.6387 21.2793C48.6387 21.5892 48.8848 21.7441 49.377 21.7441C49.7598 21.7441 50.1061 21.6621 50.416 21.498C50.735 21.334 50.9401 21.252 51.0312 21.252C51.2227 21.252 51.3184 21.3477 51.3184 21.5391C51.3184 22.3503 50.9036 23.0293 50.0742 23.5762C49.5182 23.9499 49.0078 24.1367 48.543 24.1367C48.0781 24.1367 47.6908 24.0866 47.3809 23.9863C47.0801 23.8861 46.8112 23.7266 46.5742 23.5078C46.0365 23.0247 45.7676 22.3503 45.7676 21.4844C45.7676 20.4271 46.1003 19.1055 46.7656 17.5195C47.2487 16.4349 47.5905 15.6921 47.791 15.291L48.2559 14.3203C48.5384 13.737 48.6797 13.2767 48.6797 12.9395C48.6797 12.6022 48.429 12.4336 47.9277 12.4336Z" fill="#122B5A"/>
<path d="M53.9297 19.2148C53.9661 18.4219 54.0983 17.6654 54.3262 16.9453C54.554 16.2161 54.8594 15.5143 55.2422 14.8398C55.625 14.1562 56.0716 13.5137 56.582 12.9121C57.1016 12.3014 57.6621 11.7682 58.2637 11.3125C59.5671 10.3372 60.8841 9.84961 62.2148 9.84961C63.7734 9.84961 64.8125 10.4922 65.332 11.7773C65.5143 12.2148 65.6009 12.7344 65.5918 13.3359C65.5827 13.9284 65.4688 14.4798 65.25 14.9902C65.0312 15.4915 64.7259 15.9518 64.334 16.3711C63.9512 16.7812 63.4909 17.1504 62.9531 17.4785C62.4245 17.8066 61.8457 18.0846 61.2168 18.3125C59.9225 18.7682 58.5371 19.0052 57.0605 19.0234C57.0241 19.151 57.0013 19.3424 56.9922 19.5977C56.9831 19.8529 57.0104 20.14 57.0742 20.459C57.138 20.7689 57.2474 21.0469 57.4023 21.293C57.7305 21.8398 58.2044 22.1133 58.8242 22.1133C59.8815 22.1133 60.9115 21.8034 61.9141 21.1836C62.2695 20.974 62.5566 20.7598 62.7754 20.541C63.0033 20.3132 63.1992 20.1992 63.3633 20.1992C63.5273 20.1992 63.6686 20.2995 63.7871 20.5C63.9147 20.6914 63.9785 20.9102 63.9785 21.1562C63.9785 21.6393 63.8418 22.0586 63.5684 22.4141C62.4199 23.5625 60.7109 24.1367 58.4414 24.1367C57.1016 24.1367 56.026 23.7357 55.2148 22.9336C54.3034 22.0221 53.875 20.7826 53.9297 19.2148ZM61.9141 11.668C60.957 11.668 60.0365 12.3242 59.1523 13.6367C58.4049 14.7669 57.8034 16.1068 57.3477 17.6562C58.8698 17.5013 60.1914 16.8997 61.3125 15.8516C62.3424 14.8672 62.8574 13.9238 62.8574 13.0215C62.8574 12.1191 62.543 11.668 61.9141 11.668Z" fill="#122B5A"/>
<path d="M77.3086 12.4336C76.7799 12.4336 75.8138 13.1992 74.4102 14.7305C73.362 15.9245 72.6009 16.8223 72.127 17.4238L70.8965 18.9824C70.3678 19.985 69.9531 20.819 69.6523 21.4844L68.9141 23.0703C68.7227 23.4622 68.554 23.7402 68.4082 23.9043C68.2715 24.0592 68.0801 24.1367 67.834 24.1367C67.597 24.1367 67.3646 24.0911 67.1367 24C66.918 23.918 66.7266 23.8086 66.5625 23.6719C66.2161 23.3802 66.043 23.0612 66.043 22.7148C66.043 22.5781 66.1432 22.3092 66.3438 21.9082L66.8633 20.8008C67.0273 20.4727 67.2188 20.0534 67.4375 19.543L68.2031 17.6699C69.2786 14.9811 69.8164 13.2448 69.8164 12.4609C69.8164 12.0417 69.6797 11.7318 69.4062 11.5312L69.1328 11.3398C69.0417 11.276 68.9961 11.1667 68.9961 11.0117C68.9961 10.8477 69.0553 10.6927 69.1738 10.5469C69.3014 10.401 69.4655 10.2734 69.666 10.1641C70.0762 9.95443 70.4863 9.84961 70.8965 9.84961C71.3158 9.84961 71.6439 9.89518 71.8809 9.98633C72.1178 10.0775 72.3229 10.2005 72.4961 10.3555C72.8424 10.6745 73.0156 11.0072 73.0156 11.3535C73.0156 11.6999 72.9701 12.0508 72.8789 12.4062C72.7878 12.7526 72.6738 13.1081 72.5371 13.4727C72.4004 13.8281 72.2546 14.1745 72.0996 14.5117C71.735 15.2956 71.5072 15.7786 71.416 15.9609C71.334 16.1341 71.3112 16.1979 71.3477 16.1523C73.0156 13.9922 74.0182 12.7161 74.3555 12.3242C75.0573 11.513 75.6042 10.957 75.9961 10.6562C76.7161 10.1185 77.3952 9.84961 78.0332 9.84961C78.6803 9.84961 79.1953 10.0501 79.5781 10.4512C79.9609 10.8522 80.1523 11.3809 80.1523 12.0371C80.1523 12.6113 80.0065 13.2858 79.7148 14.0605C79.4232 14.8353 79.2272 15.3776 79.127 15.6875L81.1367 13.0352L82.2578 11.6953C82.9323 10.9388 83.5247 10.4421 84.0352 10.2051C84.5456 9.9681 84.9603 9.84961 85.2793 9.84961C85.6074 9.84961 85.9264 9.90885 86.2363 10.0273C86.5553 10.1458 86.8242 10.3145 87.043 10.5332C87.5078 10.9798 87.7402 11.5723 87.7402 12.3105C87.7402 13.0215 87.5762 13.7507 87.248 14.498C86.9199 15.2454 86.6328 15.8607 86.3867 16.3438C86.1406 16.8177 85.9036 17.2962 85.6758 17.7793C85.0104 19.2285 84.6777 20.304 84.6777 21.0059C84.6777 21.498 84.8783 21.7441 85.2793 21.7441C85.6621 21.7441 86.0085 21.6621 86.3184 21.498C86.6374 21.334 86.8424 21.252 86.9336 21.252C87.125 21.252 87.2207 21.3477 87.2207 21.5391C87.2207 22.3503 86.806 23.0293 85.9766 23.5762C85.4206 23.9499 84.9102 24.1367 84.4453 24.1367C83.9896 24.1367 83.6204 24.082 83.3379 23.9727C83.0553 23.8633 82.8001 23.6901 82.5723 23.4531C82.0618 22.9245 81.8066 22.2637 81.8066 21.4707C81.8066 20.6777 81.9069 19.9486 82.1074 19.2832C82.3079 18.6178 82.5449 17.9753 82.8184 17.3555C83.0918 16.7266 83.3652 16.1523 83.6387 15.6328C83.9212 15.1042 84.1354 14.6849 84.2812 14.375C84.5729 13.737 84.7188 13.2676 84.7188 12.9668C84.7188 12.6113 84.5319 12.4336 84.1582 12.4336C83.666 12.4336 82.7819 13.2493 81.5059 14.8809C80.5397 16.1478 79.8698 17.0592 79.4961 17.6152L78.5527 18.9824C78.0241 19.985 77.6185 20.819 77.3359 21.4844L76.6387 23.0703C76.4655 23.4622 76.3151 23.7402 76.1875 23.9043C76.0599 24.0592 75.8822 24.1367 75.6543 24.1367C75.4264 24.1367 75.2031 24.1003 74.9844 24.0273C74.7747 23.9544 74.5924 23.8587 74.4375 23.7402C74.082 23.4759 73.9043 23.1979 73.9043 22.9062C73.9043 22.6055 74 22.1999 74.1914 21.6895C74.3919 21.1699 74.638 20.5911 74.9297 19.9531L76.8438 15.9062C77.5273 14.4023 77.8691 13.4499 77.8691 13.0488C77.8691 12.6387 77.6823 12.4336 77.3086 12.4336ZM78.6621 16.2891C78.6712 16.2891 78.6758 16.2845 78.6758 16.2754L78.6895 16.248C78.6712 16.2663 78.6621 16.2799 78.6621 16.2891Z" fill="#122B5A"/>
<path d="M91.1035 23.0703C90.7207 22.7057 90.4199 22.2454 90.2012 21.6895C89.9824 21.1243 89.8685 20.459 89.8594 19.6934C89.8503 18.9277 89.9414 18.153 90.1328 17.3691C90.3333 16.5853 90.6113 15.8288 90.9668 15.0996C91.3314 14.3704 91.7643 13.6868 92.2656 13.0488C92.776 12.4108 93.3366 11.8548 93.9473 11.3809C95.278 10.36 96.6589 9.84961 98.0898 9.84961C99.9674 9.84961 101.239 10.6745 101.904 12.3242C102.378 13.5182 102.406 14.9629 101.986 16.6582C101.604 18.2168 100.902 19.6478 99.8809 20.9512C98.8691 22.2546 97.6751 23.1797 96.2988 23.7266C95.6061 24 94.9225 24.1367 94.248 24.1367C93.5827 24.1367 92.9857 24.0501 92.457 23.877C91.9375 23.7038 91.4863 23.4349 91.1035 23.0703ZM93.7148 16.4395C93.4414 17.1139 93.2227 17.8066 93.0586 18.5176C92.9036 19.2285 92.8307 19.903 92.8398 20.541C92.849 21.1699 92.9447 21.6667 93.127 22.0312C93.3184 22.3867 93.6237 22.5645 94.043 22.5645C94.4622 22.5645 94.8724 22.4232 95.2734 22.1406C95.6836 21.849 96.0801 21.4661 96.4629 20.9922C96.8457 20.5182 97.2057 19.9714 97.543 19.3516C97.8802 18.7318 98.1764 18.0846 98.4316 17.4102C98.9876 15.9427 99.2565 14.6393 99.2383 13.5C99.2383 12.4974 99.0332 11.8594 98.623 11.5859C98.459 11.4766 98.2266 11.4219 97.9258 11.4219C97.6341 11.4219 97.2969 11.5586 96.9141 11.832C96.5312 12.0964 96.1484 12.4564 95.7656 12.9121C95.3828 13.3678 95.0137 13.901 94.6582 14.5117C94.3027 15.1224 93.9883 15.765 93.7148 16.4395Z" fill="#122B5A"/>
<path d="M104.912 23.4531C104.684 23.2161 104.497 22.9154 104.352 22.5508C104.215 22.1771 104.146 21.7487 104.146 21.2656C104.146 20.7734 104.256 20.1172 104.475 19.2969C104.702 18.4766 104.99 17.5423 105.336 16.4941L106.484 13.0898C108.116 8.35026 109.059 4.6862 109.314 2.09766C109.396 1.33203 109.77 0.949219 110.436 0.949219C110.855 0.949219 111.201 1.04948 111.475 1.25C112.003 1.65104 112.258 2.09766 112.24 2.58984C112.222 3.08203 112.135 3.68359 111.98 4.39453C111.826 5.09635 111.625 5.86654 111.379 6.70508C111.133 7.53451 110.85 8.41406 110.531 9.34375L108.645 14.8945C107.56 18.0482 107.018 20.0853 107.018 21.0059C107.018 21.498 107.218 21.7441 107.619 21.7441C108.002 21.7441 108.348 21.6621 108.658 21.498C108.977 21.334 109.182 21.252 109.273 21.252C109.465 21.252 109.561 21.3477 109.561 21.5391C109.561 22.3503 109.146 23.0293 108.316 23.5762C107.76 23.9499 107.25 24.1367 106.785 24.1367C106.329 24.1367 105.96 24.082 105.678 23.9727C105.395 23.8633 105.14 23.6901 104.912 23.4531Z" fill="#122B5A"/>
<path d="M113.334 23.0703C112.951 22.7057 112.65 22.2454 112.432 21.6895C112.213 21.1243 112.099 20.459 112.09 19.6934C112.081 18.9277 112.172 18.153 112.363 17.3691C112.564 16.5853 112.842 15.8288 113.197 15.0996C113.562 14.3704 113.995 13.6868 114.496 13.0488C115.007 12.4108 115.567 11.8548 116.178 11.3809C117.508 10.36 118.889 9.84961 120.32 9.84961C122.198 9.84961 123.469 10.6745 124.135 12.3242C124.609 13.5182 124.636 14.9629 124.217 16.6582C123.834 18.2168 123.132 19.6478 122.111 20.9512C121.1 22.2546 119.906 23.1797 118.529 23.7266C117.837 24 117.153 24.1367 116.479 24.1367C115.813 24.1367 115.216 24.0501 114.688 23.877C114.168 23.7038 113.717 23.4349 113.334 23.0703ZM115.945 16.4395C115.672 17.1139 115.453 17.8066 115.289 18.5176C115.134 19.2285 115.061 19.903 115.07 20.541C115.079 21.1699 115.175 21.6667 115.357 22.0312C115.549 22.3867 115.854 22.5645 116.273 22.5645C116.693 22.5645 117.103 22.4232 117.504 22.1406C117.914 21.849 118.311 21.4661 118.693 20.9922C119.076 20.5182 119.436 19.9714 119.773 19.3516C120.111 18.7318 120.407 18.0846 120.662 17.4102C121.218 15.9427 121.487 14.6393 121.469 13.5C121.469 12.4974 121.264 11.8594 120.854 11.5859C120.689 11.4766 120.457 11.4219 120.156 11.4219C119.865 11.4219 119.527 11.5586 119.145 11.832C118.762 12.0964 118.379 12.4564 117.996 12.9121C117.613 13.3678 117.244 13.901 116.889 14.5117C116.533 15.1224 116.219 15.765 115.945 16.4395Z" fill="#122B5A"/>
<path d="M134.484 21.0195C133.099 23.0977 131.563 24.1367 129.877 24.1367C128.355 24.1367 127.329 23.3255 126.801 21.7031C126.618 21.1471 126.527 20.4635 126.527 19.6523C126.527 18.8411 126.641 18.0299 126.869 17.2188C127.106 16.3984 127.425 15.6237 127.826 14.8945C128.227 14.1654 128.697 13.4954 129.234 12.8848C129.781 12.265 130.365 11.7318 130.984 11.2852C132.279 10.3281 133.564 9.84961 134.84 9.84961C136.116 9.84961 137.027 10.4466 137.574 11.6406C137.684 11.5221 137.784 11.4036 137.875 11.2852C137.966 11.1576 138.066 11.0391 138.176 10.9297C138.413 10.6927 138.618 10.5742 138.791 10.5742C138.973 10.5742 139.16 10.6061 139.352 10.6699C139.552 10.7337 139.743 10.8203 139.926 10.9297C140.372 11.194 140.541 11.4401 140.432 11.668C139.93 12.7526 139.511 13.819 139.174 14.8672L137.15 21.3203C135.555 26.2148 133.532 29.3776 131.08 30.8086C130.433 31.1914 129.872 31.4102 129.398 31.4648C128.924 31.5286 128.583 31.5332 128.373 31.4785C128.163 31.4238 127.977 31.3464 127.812 31.2461C127.457 31.0182 127.279 30.8132 127.279 30.6309C127.279 30.3118 127.489 30.1159 127.908 30.043C128.337 29.9701 128.783 29.7969 129.248 29.5234C129.713 29.2591 130.155 28.9355 130.574 28.5527C132.297 26.9577 133.6 24.4466 134.484 21.0195ZM130.383 16.2754C130.146 16.9316 129.959 17.6061 129.822 18.2988C129.686 18.9824 129.617 19.543 129.617 19.9805C129.617 20.418 129.631 20.7507 129.658 20.9785C129.686 21.2064 129.74 21.4069 129.822 21.5801C130.005 21.9629 130.273 22.1543 130.629 22.1543C130.984 22.1543 131.335 22.0312 131.682 21.7852C132.028 21.5299 132.393 21.1836 132.775 20.7461C133.158 20.3086 133.541 19.7936 133.924 19.2012C134.307 18.6087 134.671 17.9707 135.018 17.2871C135.783 15.7741 136.321 14.3294 136.631 12.9531C136.585 12.6979 136.43 12.4382 136.166 12.1738C135.646 11.6725 135.177 11.4219 134.758 11.4219C134.339 11.4219 133.919 11.554 133.5 11.8184C133.081 12.0736 132.68 12.4245 132.297 12.8711C131.923 13.3086 131.572 13.8236 131.244 14.416C130.916 14.9993 130.629 15.6191 130.383 16.2754Z" fill="#122B5A"/>
<path d="M141.211 22.6738C141.102 22.373 141.047 22.0312 141.047 21.6484C141.047 21.2565 141.111 20.8236 141.238 20.3496C141.375 19.8665 141.548 19.3652 141.758 18.8457C141.967 18.3262 142.195 17.793 142.441 17.2461L143.18 15.6055C144.128 13.5 144.479 12.2513 144.232 11.8594C144.123 11.6862 143.918 11.513 143.617 11.3398C143.508 11.276 143.453 11.1667 143.453 11.0117C143.453 10.8477 143.517 10.6927 143.645 10.5469C143.781 10.401 143.954 10.2734 144.164 10.1641C144.611 9.95443 145.057 9.84961 145.504 9.84961C145.951 9.84961 146.288 9.89974 146.516 10C146.753 10.0911 146.944 10.2096 147.09 10.3555C147.391 10.6562 147.541 10.9889 147.541 11.3535C147.541 11.7181 147.482 12.1283 147.363 12.584C147.245 13.0306 147.09 13.5182 146.898 14.0469C146.707 14.5755 146.497 15.1224 146.27 15.6875C145.641 17.1641 145.217 18.1393 144.998 18.6133L144.492 19.666C144.21 20.2949 144.068 20.737 144.068 20.9922C144.068 21.2474 144.109 21.4297 144.191 21.5391C144.273 21.6393 144.419 21.6895 144.629 21.6895C144.848 21.6895 145.085 21.6074 145.34 21.4434C145.604 21.2793 145.887 21.0605 146.188 20.7871C146.488 20.5137 146.798 20.1992 147.117 19.8438C147.445 19.4792 147.764 19.1009 148.074 18.709C148.885 17.7064 149.487 16.8451 149.879 16.125C151.848 12.4974 152.891 10.6016 153.01 10.4375C153.311 10.0456 153.611 9.84961 153.912 9.84961C154.222 9.84961 154.491 9.88607 154.719 9.95898C154.947 10.0228 155.143 10.1185 155.307 10.2461C155.671 10.5104 155.781 10.8066 155.635 11.1348C155.498 11.4629 155.329 11.9141 155.129 12.4883C153.397 17.5104 152.271 20.6413 151.752 21.8809C151.242 23.1204 150.795 24.1139 150.412 24.8613C150.029 25.6178 149.578 26.3789 149.059 27.1445C148.548 27.9102 148.001 28.6074 147.418 29.2363C146.087 30.6582 144.839 31.4193 143.672 31.5195C143.225 31.556 142.87 31.4922 142.605 31.3281C142.15 31.0547 141.922 30.7949 141.922 30.5488C141.922 30.3027 142.127 30.1296 142.537 30.0293C142.956 29.9382 143.385 29.7467 143.822 29.4551C144.269 29.1725 144.697 28.8398 145.107 28.457C146.311 27.3086 147.245 26.0599 147.91 24.7109C148.475 23.526 148.931 22.4049 149.277 21.3477L150.344 18.0938C150.079 18.4128 149.788 18.7865 149.469 19.2148L148.484 20.5273C147.628 21.612 146.917 22.3822 146.352 22.8379C145.276 23.7038 144.314 24.1367 143.467 24.1367C142.337 24.1367 141.585 23.6491 141.211 22.6738Z" fill="#122B5A"/>
</svg>
